SplineFontDB: 3.2
FontName: ForbiddenMemories
FullName: ForbiddenMemories
FamilyName: ForbiddenMemories
Weight: Regular
Copyright: Font created by: Converting Minds (Master Exploder)\nThe original font concept is copyrighted to Konami.
UComments: "2021-12-26: Created with FontForge (http://fontforge.org)"
Version: 001.000
ItalicAngle: 0
UnderlinePosition: -102
UnderlineWidth: 51
Ascent: 819
Descent: 205
InvalidEm: 0
LayerCount: 2
Layer: 0 0 "Back" 1
Layer: 1 0 "Fore" 0
XUID: [1021 75 -996650749 1535]
StyleMap: 0x0000
FSType: 0
OS2Version: 0
OS2_WeightWidthSlopeOnly: 0
OS2_UseTypoMetrics: 1
CreationTime: 1640548207
ModificationTime: 1642016081
OS2TypoAscent: 0
OS2TypoAOffset: 1
OS2TypoDescent: 0
OS2TypoDOffset: 1
OS2TypoLinegap: 92
OS2WinAscent: 0
OS2WinAOffset: 1
OS2WinDescent: 0
OS2WinDOffset: 1
HheadAscent: 0
HheadAOffset: 1
HheadDescent: 0
HheadDOffset: 1
OS2Vendor: 'PfEd'
MarkAttachClasses: 1
DEI: 91125
Encoding: ISO8859-1
UnicodeInterp: none
NameList: AGL For New Fonts
DisplaySize: -48
AntiAlias: 1
FitToEm: 0
WinInfo: 0 38 13
BeginPrivate: 0
EndPrivate
BeginChars: 256 130

StartChar: A
Encoding: 65 65 0
Width: 1024
Flags: HW
LayerCount: 2
Fore
SplineSet
896 -205 m 5
 896 -162 896 -120 896 -77 c 6
 832 -77 l 6
 832 -34 832 8 832 51 c 6
 768 51 l 5
 768 243 l 5
 704 243 l 5
 704 286 704 328 704 371 c 5
 640 371 l 6
 640 414 640 456 640 499 c 6
 576 499 l 5
 576 563 l 5
 448 563 l 6
 448 520 448 478 448 435 c 6
 384 435 l 5
 384 371 l 5
 320 371 l 5
 320 179 l 5
 256 179 l 5
 256 136 256 94 256 51 c 5
 192 51 l 6
 192 8 192 -34 192 -77 c 6
 128 -77 l 5
 128 -120 128 -162 128 -205 c 6
 256 -205 l 6
 256 -162 256 -120 256 -77 c 6
 320 -77 l 5
 320 -13 l 5
 768 -13 l 5
 768 -205 l 5
 896 -205 l 5
576 51 m 5
 448 51 l 5
 448 115 l 5
 384 115 l 6
 384 158 384 200 384 243 c 5
 448 243 l 5
 448 286 448 328 448 371 c 5
 576 371 l 6
 576 328 576 286 576 243 c 6
 640 243 l 5
 640 200 640 158 640 115 c 6
 576 115 l 5
 576 51 l 5
EndSplineSet
Validated: 9
EndChar

StartChar: exclam
Encoding: 33 33 1
Width: 1024
Flags: HW
LayerCount: 2
Fore
SplineSet
376 -205 m 6
 376 -162 376 -120 376 -77 c 5
 248 -77 l 6
 248 -120 248 -162 248 -205 c 5
 376 -205 l 6
376 -13 m 5
 376 563 l 5
 248 563 l 5
 248 -13 l 5
 376 -13 l 5
EndSplineSet
EndChar

StartChar: dollar
Encoding: 36 36 2
Width: 1024
Flags: HW
LayerCount: 2
Fore
SplineSet
128 57 m 5
 128 -7 l 5
 192 -7 l 5
 192 -71 l 5
 320 -71 l 5
 320 -135 l 5
 448 -135 l 5
 448 -199 l 5
 512 -199 l 5
 512 -135 l 5
 704 -135 l 5
 704 -71 l 5
 768 -71 l 5
 768 14 768 100 768 185 c 5
 704 185 l 5
 704 249 l 5
 576 249 l 5
 576 334 576 420 576 505 c 5
 640 505 l 5
 640 441 l 5
 704 441 l 5
 704 377 l 5
 768 377 l 5
 768 420 768 462 768 505 c 6
 704 505 l 5
 704 569 l 5
 576 569 l 5
 576 633 l 5
 512 633 l 5
 512 697 l 5
 448 697 l 5
 448 633 l 5
 320 633 l 5
 320 569 l 5
 256 569 l 5
 256 505 l 5
 192 505 l 5
 192 313 l 5
 320 313 l 5
 320 249 l 5
 384 249 l 5
 384 185 l 5
 448 185 l 5
 448 -7 l 5
 320 -7 l 5
 320 57 l 5
 256 57 l 5
 256 121 l 5
 192 121 l 5
 192 57 l 5
 128 57 l 5
704 -7 m 5
 512 -7 l 5
 512 36 512 78 512 121 c 6
 576 121 l 5
 576 185 l 5
 640 185 l 5
 640 121 l 5
 704 121 l 6
 704 78 704 36 704 -7 c 5
448 313 m 5
 320 313 l 5
 320 505 l 5
 448 505 l 5
 448 313 l 5
EndSplineSet
Validated: 5
EndChar

StartChar: percent
Encoding: 37 37 3
Width: 1024
Flags: HW
LayerCount: 2
Fore
SplineSet
832 -137 m 5
 640 -137 l 5
 640 -201 l 5
 832 -201 l 5
 832 -137 l 5
832 -137 m 5
 896 -137 l 5
 896 -52 896 34 896 119 c 5
 832 119 l 5
 832 183 l 5
 640 183 l 5
 640 119 l 5
 576 119 l 5
 576 34 576 -52 576 -137 c 5
 640 -137 l 5
 640 55 l 5
 704 55 l 5
 704 119 l 5
 768 119 l 5
 768 55 l 5
 832 55 l 5
 832 -137 l 5
320 -137 m 5
 384 -137 l 5
 384 -73 l 5
 448 -73 l 5
 448 -30 448 12 448 55 c 5
 512 55 l 5
 512 119 l 5
 576 119 l 5
 576 183 l 5
 640 183 l 5
 640 226 640 268 640 311 c 5
 704 311 l 5
 704 375 l 5
 768 375 l 5
 768 439 l 5
 832 439 l 5
 832 482 832 524 832 567 c 6
 704 567 l 5
 704 503 l 5
 640 503 l 6
 640 460 640 418 640 375 c 6
 576 375 l 5
 576 311 l 5
 512 311 l 5
 512 268 512 226 512 183 c 5
 448 183 l 5
 448 119 l 5
 384 119 l 6
 384 76 384 34 384 -9 c 6
 320 -9 l 5
 320 -73 l 5
 256 -73 l 5
 256 -116 256 -158 256 -201 c 6
 320 -201 l 5
 320 -137 l 5
448 183 m 5
 448 226 448 268 448 311 c 5
 512 311 l 5
 512 375 l 5
 448 375 l 6
 448 418 448 460 448 503 c 6
 320 503 l 5
 320 567 l 5
 256 567 l 5
 256 503 l 5
 128 503 l 5
 128 460 128 418 128 375 c 5
 64 375 l 5
 64 332 64 290 64 247 c 6
 128 247 l 5
 128 183 l 5
 448 183 l 5
384 247 m 5
 192 247 l 5
 192 439 l 5
 384 439 l 5
 384 247 l 5
EndSplineSet
Validated: 5
EndChar

StartChar: ampersand
Encoding: 38 38 4
Width: 1024
Flags: HW
LayerCount: 2
Fore
SplineSet
192 377 m 5
 192 313 l 5
 256 313 l 5
 256 249 l 5
 320 249 l 5
 320 185 l 5
 256 185 l 5
 256 121 l 5
 192 121 l 5
 192 57 l 5
 128 57 l 5
 128 14 128 -28 128 -71 c 6
 192 -71 l 5
 192 -135 l 5
 256 -135 l 5
 256 -199 l 5
 512 -199 l 5
 512 -135 l 5
 256 -135 l 5
 256 57 l 5
 320 57 l 5
 320 121 l 5
 448 121 l 5
 448 57 l 5
 512 57 l 5
 512 -7 l 5
 576 -7 l 5
 576 -71 l 5
 512 -71 l 5
 512 -135 l 5
 704 -135 l 5
 704 -199 l 5
 832 -199 l 5
 832 -135 l 5
 768 -135 l 5
 768 57 l 5
 832 57 l 5
 832 121 l 5
 768 121 l 5
 768 185 l 5
 704 185 l 5
 704 142 704 100 704 57 c 5
 576 57 l 5
 576 121 l 5
 512 121 l 5
 512 185 l 5
 576 185 l 6
 576 228 576 270 576 313 c 5
 512 313 l 5
 512 249 l 5
 384 249 l 5
 384 313 l 5
 320 313 l 6
 320 356 320 398 320 441 c 5
 384 441 l 5
 384 505 l 5
 512 505 l 5
 512 441 l 5
 576 441 l 6
 576 398 576 356 576 313 c 6
 640 313 l 5
 640 505 l 5
 576 505 l 5
 576 569 l 5
 320 569 l 5
 320 505 l 5
 256 505 l 5
 256 462 256 420 256 377 c 5
 192 377 l 5
EndSplineSet
Validated: 5
EndChar

StartChar: hyphen
Encoding: 45 45 5
Width: 1024
Flags: HW
LayerCount: 2
Fore
SplineSet
832 245 m 5
 832 288 832 330 832 373 c 6
 192 373 l 6
 192 330 192 288 192 245 c 5
 832 245 l 5
EndSplineSet
Validated: 9
EndChar

StartChar: a
Encoding: 97 97 6
Width: 1024
Flags: HW
LayerCount: 2
Fore
SplineSet
788 -207 m 5
 788 -164 788 -122 788 -79 c 6
 724 -79 l 5
 724 -36 724 6 724 49 c 6
 788 49 l 5
 788 113 l 5
 724 113 l 5
 724 305 l 5
 596 305 l 5
 596 369 l 5
 404 369 l 5
 404 305 l 5
 276 305 l 5
 276 262 276 220 276 177 c 6
 340 177 l 5
 340 241 l 5
 596 241 l 5
 596 177 l 5
 532 177 l 5
 532 113 l 5
 276 113 l 5
 276 70 276 28 276 -15 c 5
 212 -15 l 6
 212 -58 212 -100 212 -143 c 5
 276 -143 l 5
 276 -207 l 5
 788 -207 l 5
596 -143 m 5
 340 -143 l 5
 340 49 l 5
 660 49 l 5
 660 6 660 -36 660 -79 c 6
 596 -79 l 5
 596 -143 l 5
EndSplineSet
Validated: 9
EndChar

StartChar: aacute
Encoding: 225 225 7
Width: 1024
Flags: HW
LayerCount: 2
Fore
SplineSet
384 505 m 5
 384 441 l 5
 512 441 l 6
 512 484 512 526 512 569 c 6
 576 569 l 6
 576 612 576 654 576 697 c 5
 448 697 l 5
 448 505 l 5
 384 505 l 5
768 -199 m 5
 768 -156 768 -114 768 -71 c 6
 704 -71 l 5
 704 -28 704 14 704 57 c 6
 768 57 l 5
 768 121 l 5
 704 121 l 5
 704 313 l 5
 576 313 l 5
 576 377 l 5
 384 377 l 5
 384 313 l 5
 256 313 l 5
 256 270 256 228 256 185 c 6
 384 185 l 5
 384 249 l 5
 576 249 l 5
 576 185 l 5
 512 185 l 5
 512 121 l 5
 256 121 l 5
 256 78 256 36 256 -7 c 5
 192 -7 l 6
 192 -50 192 -92 192 -135 c 5
 256 -135 l 5
 256 -199 l 5
 768 -199 l 5
576 -135 m 5
 320 -135 l 5
 320 57 l 5
 576 57 l 5
 576 -7 l 5
 640 -7 l 5
 640 -71 l 5
 576 -71 l 5
 576 -135 l 5
EndSplineSet
Validated: 9
EndChar

StartChar: agrave
Encoding: 224 224 8
Width: 1024
Flags: HW
LayerCount: 2
Fore
SplineSet
768 -199 m 5
 768 -156 768 -114 768 -71 c 6
 704 -71 l 5
 704 -28 704 14 704 57 c 6
 768 57 l 5
 768 121 l 5
 704 121 l 5
 704 313 l 5
 576 313 l 5
 576 377 l 5
 384 377 l 5
 384 313 l 5
 256 313 l 5
 256 270 256 228 256 185 c 6
 384 185 l 5
 384 249 l 5
 576 249 l 5
 576 185 l 5
 512 185 l 5
 512 121 l 5
 256 121 l 5
 256 78 256 36 256 -7 c 5
 192 -7 l 6
 192 -50 192 -92 192 -135 c 5
 256 -135 l 5
 256 -199 l 5
 768 -199 l 5
576 -135 m 5
 320 -135 l 5
 320 57 l 5
 576 57 l 5
 576 -7 l 5
 640 -7 l 5
 640 -71 l 5
 576 -71 l 5
 576 -135 l 5
576 505 m 5
 576 697 l 5
 448 697 l 6
 448 654 448 612 448 569 c 5
 512 569 l 6
 512 526 512 484 512 441 c 6
 640 441 l 5
 640 505 l 5
 576 505 l 5
EndSplineSet
Validated: 9
EndChar

StartChar: atilde
Encoding: 227 227 9
Width: 1024
Flags: HW
LayerCount: 2
Fore
SplineSet
202 569 m 5
 202 505 l 5
 330 505 l 5
 330 569 l 5
 458 569 l 5
 458 505 l 5
 586 505 l 5
 586 441 l 5
 650 441 l 5
 650 505 l 5
 714 505 l 5
 714 569 l 5
 778 569 l 5
 778 633 l 5
 650 633 l 5
 650 569 l 5
 522 569 l 5
 522 633 l 5
 394 633 l 5
 394 697 l 5
 330 697 l 5
 330 633 l 5
 266 633 l 5
 266 569 l 5
 202 569 l 5
778 -199 m 5
 778 -156 778 -114 778 -71 c 6
 714 -71 l 5
 714 -28 714 14 714 57 c 6
 778 57 l 5
 778 121 l 5
 714 121 l 5
 714 313 l 5
 586 313 l 5
 586 377 l 5
 394 377 l 5
 394 313 l 5
 266 313 l 5
 266 270 266 228 266 185 c 6
 394 185 l 5
 394 249 l 5
 586 249 l 5
 586 185 l 5
 522 185 l 5
 522 121 l 5
 266 121 l 5
 266 78 266 36 266 -7 c 5
 202 -7 l 6
 202 -50 202 -92 202 -135 c 5
 266 -135 l 5
 266 -199 l 5
 778 -199 l 5
586 -135 m 5
 330 -135 l 5
 330 57 l 5
 586 57 l 5
 586 -7 l 5
 650 -7 l 5
 650 -71 l 5
 586 -71 l 5
 586 -135 l 5
EndSplineSet
Validated: 9
EndChar

StartChar: acircumflex
Encoding: 226 226 10
Width: 1024
Flags: HW
LayerCount: 2
Fore
SplineSet
202 505 m 5
 202 441 l 5
 330 441 l 5
 330 505 l 5
 394 505 l 5
 394 569 l 5
 522 569 l 5
 522 505 l 5
 586 505 l 5
 586 441 l 5
 714 441 l 5
 714 505 l 5
 650 505 l 5
 650 569 l 5
 586 569 l 5
 586 633 l 5
 522 633 l 5
 522 697 l 5
 394 697 l 5
 394 633 l 5
 330 633 l 5
 330 569 l 5
 266 569 l 5
 266 505 l 5
 202 505 l 5
778 -199 m 5
 778 -156 778 -114 778 -71 c 6
 714 -71 l 5
 714 -28 714 14 714 57 c 6
 778 57 l 5
 778 121 l 5
 714 121 l 5
 714 313 l 5
 586 313 l 5
 586 377 l 5
 394 377 l 5
 394 313 l 5
 266 313 l 5
 266 270 266 228 266 185 c 6
 394 185 l 5
 394 249 l 5
 586 249 l 5
 586 185 l 5
 522 185 l 5
 522 121 l 5
 266 121 l 5
 266 78 266 36 266 -7 c 5
 202 -7 l 6
 202 -50 202 -92 202 -135 c 5
 266 -135 l 5
 266 -199 l 5
 778 -199 l 5
586 -135 m 5
 330 -135 l 5
 330 57 l 5
 586 57 l 5
 586 -7 l 5
 650 -7 l 5
 650 -71 l 5
 586 -71 l 5
 586 -135 l 5
EndSplineSet
Validated: 9
EndChar

StartChar: b
Encoding: 98 98 11
Width: 1024
Flags: HW
LayerCount: 2
Fore
SplineSet
680 -141 m 5
 744 -141 l 6
 744 -98 744 -56 744 -13 c 6
 808 -13 l 5
 808 179 l 5
 744 179 l 5
 744 222 744 264 744 307 c 5
 616 307 l 5
 616 371 l 5
 424 371 l 5
 424 307 l 5
 360 307 l 5
 360 392 360 478 360 563 c 5
 232 563 l 5
 232 307 232 51 232 -205 c 5
 680 -205 l 5
 680 -141 l 5
616 -141 m 5
 424 -141 l 5
 424 -77 l 5
 360 -77 l 5
 360 8 360 94 360 179 c 5
 424 179 l 5
 424 243 l 5
 616 243 l 5
 616 179 l 5
 680 179 l 5
 680 94 680 8 680 -77 c 5
 616 -77 l 5
 616 -141 l 5
EndSplineSet
Validated: 9
EndChar

StartChar: c
Encoding: 99 99 12
Width: 1024
Flags: HW
LayerCount: 2
Fore
SplineSet
684 -137 m 5
 748 -137 l 5
 748 -94 748 -52 748 -9 c 6
 684 -9 l 5
 684 -73 l 5
 620 -73 l 5
 620 -137 l 5
 428 -137 l 5
 428 -73 l 5
 364 -73 l 5
 364 12 364 98 364 183 c 5
 428 183 l 5
 428 247 l 5
 620 247 l 5
 620 183 l 5
 748 183 l 5
 748 226 748 268 748 311 c 6
 620 311 l 5
 620 375 l 5
 428 375 l 5
 428 311 l 5
 300 311 l 5
 300 247 l 5
 236 247 l 5
 236 -73 l 5
 300 -73 l 5
 300 -137 l 5
 364 -137 l 5
 364 -201 l 5
 684 -201 l 5
 684 -137 l 5
EndSplineSet
Validated: 9
EndChar

StartChar: d
Encoding: 100 100 13
Width: 1024
Flags: HW
LayerCount: 2
Fore
SplineSet
792 -205 m 5
 792 51 792 307 792 563 c 5
 664 563 l 5
 664 478 664 392 664 307 c 5
 600 307 l 5
 600 371 l 5
 408 371 l 5
 408 307 l 5
 280 307 l 5
 280 243 l 5
 216 243 l 5
 216 -77 l 5
 280 -77 l 5
 280 -141 l 5
 344 -141 l 5
 344 -205 l 5
 792 -205 l 5
600 -141 m 5
 408 -141 l 5
 408 -77 l 5
 344 -77 l 5
 344 243 l 5
 600 243 l 5
 600 179 l 5
 664 179 l 5
 664 94 664 8 664 -77 c 5
 600 -77 l 5
 600 -141 l 5
EndSplineSet
Validated: 9
EndChar

StartChar: e
Encoding: 101 101 14
Width: 1024
Flags: HW
LayerCount: 2
Fore
SplineSet
724 -137 m 5
 788 -137 l 5
 788 -94 788 -52 788 -9 c 6
 724 -9 l 5
 724 -73 l 5
 596 -73 l 5
 596 -137 l 5
 468 -137 l 5
 468 -73 l 5
 404 -73 l 5
 404 -9 l 5
 340 -9 l 5
 340 55 l 5
 788 55 l 5
 788 247 l 5
 724 247 l 5
 724 311 l 5
 660 311 l 5
 660 375 l 5
 468 375 l 5
 468 311 l 5
 276 311 l 5
 276 268 276 226 276 183 c 5
 212 183 l 5
 212 -9 l 5
 276 -9 l 6
 276 -52 276 -94 276 -137 c 6
 340 -137 l 5
 340 -201 l 5
 724 -201 l 5
 724 -137 l 5
660 119 m 6
 340 119 l 5
 340 183 l 5
 404 183 l 5
 404 247 l 5
 660 247 l 5
 660 204 660 162 660 119 c 6
EndSplineSet
Validated: 9
EndChar

StartChar: eacute
Encoding: 233 233 15
Width: 1024
Flags: HW
LayerCount: 2
Fore
SplineSet
384 505 m 5
 384 441 l 5
 512 441 l 6
 512 484 512 526 512 569 c 6
 576 569 l 5
 576 761 l 5
 512 761 l 5
 512 697 l 5
 448 697 l 5
 448 505 l 5
 384 505 l 5
704 -135 m 5
 768 -135 l 5
 768 -71 l 5
 640 -71 l 5
 640 -135 l 5
 448 -135 l 5
 448 -71 l 5
 320 -71 l 6
 320 -28 320 14 320 57 c 5
 768 57 l 5
 768 249 l 5
 704 249 l 5
 704 313 l 5
 640 313 l 5
 640 377 l 5
 448 377 l 5
 448 313 l 5
 256 313 l 5
 256 270 256 228 256 185 c 5
 192 185 l 5
 192 -7 l 5
 256 -7 l 6
 256 -50 256 -92 256 -135 c 6
 320 -135 l 5
 320 -199 l 5
 704 -199 l 5
 704 -135 l 5
640 121 m 6
 320 121 l 5
 320 185 l 5
 384 185 l 5
 384 249 l 5
 640 249 l 5
 640 206 640 164 640 121 c 6
EndSplineSet
Validated: 9
EndChar

StartChar: egrave
Encoding: 232 232 16
Width: 1024
Flags: HW
LayerCount: 2
Fore
SplineSet
704 -135 m 5
 768 -135 l 5
 768 -71 l 5
 640 -71 l 5
 640 -135 l 5
 448 -135 l 5
 448 -71 l 5
 320 -71 l 6
 320 -28 320 14 320 57 c 5
 768 57 l 5
 768 249 l 5
 704 249 l 5
 704 313 l 5
 640 313 l 5
 640 377 l 5
 448 377 l 5
 448 313 l 5
 256 313 l 5
 256 270 256 228 256 185 c 5
 192 185 l 5
 192 -7 l 5
 256 -7 l 6
 256 -50 256 -92 256 -135 c 6
 320 -135 l 5
 320 -199 l 5
 704 -199 l 5
 704 -135 l 5
640 121 m 6
 320 121 l 5
 320 185 l 5
 384 185 l 5
 384 249 l 5
 640 249 l 5
 640 206 640 164 640 121 c 6
576 505 m 5
 576 697 l 5
 448 697 l 6
 448 654 448 612 448 569 c 5
 512 569 l 6
 512 526 512 484 512 441 c 6
 640 441 l 5
 640 505 l 5
 576 505 l 5
EndSplineSet
Validated: 9
EndChar

StartChar: ecircumflex
Encoding: 234 234 17
Width: 1024
Flags: HW
LayerCount: 2
Fore
SplineSet
256 505 m 5
 256 441 l 5
 384 441 l 5
 384 505 l 5
 448 505 l 5
 448 569 l 5
 576 569 l 5
 576 505 l 5
 640 505 l 5
 640 441 l 5
 768 441 l 5
 768 505 l 5
 704 505 l 5
 704 569 l 5
 640 569 l 5
 640 633 l 5
 576 633 l 5
 576 697 l 5
 448 697 l 5
 448 633 l 5
 384 633 l 5
 384 569 l 5
 320 569 l 5
 320 505 l 5
 256 505 l 5
704 -135 m 5
 768 -135 l 5
 768 -71 l 5
 640 -71 l 5
 640 -135 l 5
 448 -135 l 5
 448 -71 l 5
 320 -71 l 6
 320 -28 320 14 320 57 c 5
 768 57 l 5
 768 249 l 5
 704 249 l 5
 704 313 l 5
 640 313 l 5
 640 377 l 5
 448 377 l 5
 448 313 l 5
 256 313 l 5
 256 270 256 228 256 185 c 5
 192 185 l 5
 192 -7 l 5
 256 -7 l 6
 256 -50 256 -92 256 -135 c 6
 320 -135 l 5
 320 -199 l 5
 704 -199 l 5
 704 -135 l 5
640 121 m 6
 320 121 l 5
 320 185 l 5
 384 185 l 5
 384 249 l 5
 640 249 l 5
 640 206 640 164 640 121 c 6
EndSplineSet
Validated: 9
EndChar

StartChar: f
Encoding: 102 102 18
Width: 1024
Flags: HW
LayerCount: 2
Fore
SplineSet
532 -205 m 5
 532 243 l 5
 724 243 l 6
 724 286 724 328 724 371 c 5
 532 371 l 5
 532 435 l 5
 724 435 l 6
 724 478 724 520 724 563 c 5
 468 563 l 5
 468 499 l 5
 404 499 l 6
 404 456 404 414 404 371 c 6
 276 371 l 5
 276 328 276 286 276 243 c 6
 404 243 l 5
 404 -205 l 5
 532 -205 l 5
EndSplineSet
Validated: 9
EndChar

StartChar: g
Encoding: 103 103 19
Width: 1024
Flags: HW
LayerCount: 2
Fore
SplineSet
276 -77 m 5
 276 -141 l 5
 340 -141 l 5
 340 -205 l 5
 660 -205 l 5
 660 -141 l 5
 404 -141 l 5
 404 -77 l 5
 276 -77 l 5
660 -141 m 5
 724 -141 l 5
 724 -77 l 5
 788 -77 l 5
 788 94 788 264 788 435 c 5
 724 435 l 5
 724 499 l 5
 660 499 l 5
 660 435 l 5
 596 435 l 5
 596 499 l 5
 340 499 l 5
 340 435 l 5
 276 435 l 5
 276 392 276 350 276 307 c 5
 212 307 l 5
 212 222 212 136 212 51 c 5
 276 51 l 5
 276 -13 l 5
 404 -13 l 5
 404 -77 l 5
 532 -77 l 5
 532 -13 l 5
 660 -13 l 5
 660 -56 660 -98 660 -141 c 5
660 51 m 5
 340 51 l 5
 340 371 l 5
 596 371 l 5
 596 307 l 5
 660 307 l 5
 660 222 660 136 660 51 c 5
EndSplineSet
Validated: 5
EndChar

StartChar: iacute
Encoding: 237 237 20
Width: 1024
Flags: HW
LayerCount: 2
Fore
SplineSet
566 -203 m 5
 566 373 l 5
 438 373 l 5
 438 -203 l 5
 566 -203 l 5
502 501 m 5
 566 501 l 6
 566 544 566 586 566 629 c 6
 630 629 l 5
 630 821 l 5
 566 821 l 5
 566 757 l 5
 502 757 l 5
 502 714 502 672 502 629 c 5
 438 629 l 5
 438 437 l 5
 502 437 l 5
 502 501 l 5
EndSplineSet
Validated: 9
EndChar

StartChar: igrave
Encoding: 236 236 21
Width: 1024
Flags: HW
LayerCount: 2
Fore
SplineSet
576 -203 m 5
 576 373 l 5
 448 373 l 5
 448 -203 l 5
 576 -203 l 5
576 437 m 5
 576 629 l 5
 512 629 l 5
 512 672 512 714 512 757 c 5
 448 757 l 5
 448 821 l 5
 384 821 l 5
 384 629 l 5
 448 629 l 5
 448 586 448 544 448 501 c 5
 512 501 l 5
 512 437 l 5
 576 437 l 5
EndSplineSet
Validated: 9
EndChar

StartChar: h
Encoding: 104 104 22
Width: 1024
Flags: HW
LayerCount: 2
Fore
SplineSet
798 -205 m 5
 798 243 l 5
 734 243 l 5
 734 286 734 328 734 371 c 5
 478 371 l 5
 478 307 l 5
 350 307 l 5
 350 392 350 478 350 563 c 5
 222 563 l 5
 222 307 222 51 222 -205 c 5
 350 -205 l 5
 350 -77 350 51 350 179 c 5
 414 179 l 5
 414 243 l 5
 670 243 l 5
 670 -205 l 5
 798 -205 l 5
EndSplineSet
Validated: 9
EndChar

StartChar: i
Encoding: 105 105 23
Width: 1024
Flags: HW
LayerCount: 2
Fore
SplineSet
576 -205 m 5
 576 371 l 5
 448 371 l 5
 448 -205 l 5
 576 -205 l 5
576 435 m 6
 576 478 576 520 576 563 c 5
 448 563 l 6
 448 520 448 478 448 435 c 5
 576 435 l 6
EndSplineSet
Validated: 9
EndChar

StartChar: j
Encoding: 106 106 24
Width: 1024
Flags: HW
LayerCount: 2
Fore
SplineSet
384 -135 m 5
 384 -199 l 5
 640 -199 l 5
 640 505 l 5
 512 505 l 5
 512 292 512 78 512 -135 c 5
 384 -135 l 5
640 569 m 5
 640 612 640 654 640 697 c 6
 512 697 l 5
 512 654 512 612 512 569 c 6
 640 569 l 5
EndSplineSet
Validated: 9
EndChar

StartChar: k
Encoding: 107 107 25
Width: 1024
Flags: HW
LayerCount: 2
Fore
SplineSet
768 -205 m 5
 768 -162 768 -120 768 -77 c 6
 704 -77 l 5
 704 -13 l 5
 576 -13 l 5
 576 179 l 5
 640 179 l 5
 640 243 l 5
 704 243 l 6
 704 286 704 328 704 371 c 5
 640 371 l 5
 640 307 l 5
 512 307 l 5
 512 243 l 5
 448 243 l 5
 448 179 l 5
 320 179 l 5
 320 307 320 435 320 563 c 5
 192 563 l 5
 192 307 192 51 192 -205 c 5
 320 -205 l 5
 320 -13 l 5
 384 -13 l 5
 384 51 l 5
 448 51 l 5
 448 -13 l 5
 512 -13 l 5
 512 -77 l 5
 576 -77 l 5
 576 -141 l 5
 640 -141 l 5
 640 -205 l 5
 768 -205 l 5
EndSplineSet
Validated: 9
EndChar

StartChar: l
Encoding: 108 108 26
Width: 1024
Flags: HW
LayerCount: 2
Fore
SplineSet
576 -205 m 5
 576 51 576 307 576 563 c 5
 448 563 l 5
 448 307 448 51 448 -205 c 5
 576 -205 l 5
EndSplineSet
Validated: 9
EndChar

StartChar: m
Encoding: 109 109 27
Width: 1024
Flags: HW
LayerCount: 2
Fore
SplineSet
960 -201 m 5
 960 -30 960 140 960 311 c 5
 896 311 l 5
 896 375 l 5
 640 375 l 5
 640 311 l 5
 512 311 l 5
 512 375 l 5
 64 375 l 5
 64 -201 l 5
 192 -201 l 5
 192 119 l 5
 256 119 l 6
 256 162 256 204 256 247 c 6
 448 247 l 5
 448 -201 l 5
 576 -201 l 5
 576 119 l 5
 640 119 l 5
 640 162 640 204 640 247 c 5
 832 247 l 5
 832 -201 l 5
 960 -201 l 5
EndSplineSet
Validated: 9
EndChar

StartChar: n
Encoding: 110 110 28
Width: 1024
Flags: HW
LayerCount: 2
Fore
SplineSet
778 -201 m 5
 778 247 l 5
 714 247 l 5
 714 311 l 5
 650 311 l 5
 650 375 l 5
 394 375 l 5
 394 311 l 5
 330 311 l 5
 330 375 l 5
 202 375 l 5
 202 -201 l 5
 330 -201 l 5
 330 -73 330 55 330 183 c 5
 394 183 l 5
 394 247 l 5
 586 247 l 5
 586 183 l 5
 650 183 l 5
 650 55 650 -73 650 -201 c 5
 778 -201 l 5
EndSplineSet
Validated: 9
EndChar

StartChar: o
Encoding: 111 111 29
Width: 1024
Flags: HW
LayerCount: 2
Fore
SplineSet
704 -137 m 5
 768 -137 l 5
 768 -94 768 -52 768 -9 c 5
 832 -9 l 5
 832 183 l 5
 768 183 l 5
 768 247 l 5
 704 247 l 5
 704 311 l 5
 640 311 l 5
 640 375 l 5
 384 375 l 5
 384 311 l 5
 256 311 l 5
 256 268 256 226 256 183 c 5
 192 183 l 5
 192 -9 l 5
 256 -9 l 6
 256 -52 256 -94 256 -137 c 6
 320 -137 l 5
 320 -201 l 5
 704 -201 l 5
 704 -137 l 5
576 -137 m 5
 448 -137 l 5
 448 -73 l 5
 384 -73 l 5
 384 -9 l 5
 320 -9 l 5
 320 183 l 5
 384 183 l 5
 384 247 l 5
 640 247 l 5
 640 183 l 5
 704 183 l 5
 704 98 704 12 704 -73 c 5
 576 -73 l 5
 576 -137 l 5
EndSplineSet
Validated: 9
EndChar

StartChar: quotedbl
Encoding: 34 34 30
Width: 1024
Flags: HW
LayerCount: 2
Fore
SplineSet
704 467 m 1
 704 787 l 1
 576 787 l 1
 576 467 l 1
 704 467 l 1
448 467 m 1
 448 787 l 1
 320 787 l 1
 320 467 l 1
 448 467 l 1
EndSplineSet
Validated: 9
EndChar

StartChar: quotesingle
Encoding: 39 39 31
Width: 1024
Flags: HW
LayerCount: 2
Fore
SplineSet
356 497 m 5
 356 817 l 5
 228 817 l 5
 228 497 l 5
 356 497 l 5
EndSplineSet
EndChar

StartChar: plus
Encoding: 43 43 32
Width: 1024
Flags: HW
LayerCount: 2
Fore
SplineSet
576 -75 m 5
 576 245 l 5
 832 245 l 5
 832 288 832 330 832 373 c 6
 576 373 l 5
 576 693 l 5
 448 693 l 5
 448 373 l 5
 192 373 l 6
 192 330 192 288 192 245 c 5
 448 245 l 5
 448 -75 l 5
 576 -75 l 5
EndSplineSet
Validated: 9
EndChar

StartChar: asterisk
Encoding: 42 42 33
Width: 1024
Flags: HW
LayerCount: 2
Fore
SplineSet
576 -1 m 5
 576 191 l 5
 704 191 l 5
 704 127 l 5
 832 127 l 5
 832 170 832 212 832 255 c 6
 704 255 l 5
 704 319 l 5
 768 319 l 5
 768 383 l 5
 832 383 l 5
 832 426 832 468 832 511 c 6
 704 511 l 5
 704 447 l 5
 576 447 l 5
 576 639 l 5
 448 639 l 5
 448 447 l 5
 320 447 l 5
 320 511 l 5
 192 511 l 6
 192 468 192 426 192 383 c 5
 320 383 l 5
 320 340 320 298 320 255 c 6
 192 255 l 6
 192 212 192 170 192 127 c 5
 384 127 l 5
 384 191 l 5
 448 191 l 5
 448 -1 l 5
 576 -1 l 5
EndSplineSet
Validated: 9
EndChar

StartChar: comma
Encoding: 44 44 34
Width: 1024
Flags: HW
LayerCount: 2
Fore
SplineSet
312 -139 m 5
 376 -139 l 5
 376 53 l 5
 248 53 l 5
 248 -32 248 -118 248 -203 c 5
 312 -203 l 5
 312 -139 l 5
EndSplineSet
Validated: 9
EndChar

StartChar: numbersign
Encoding: 35 35 35
Width: 1024
Flags: HW
LayerCount: 2
Fore
SplineSet
704 -199 m 5
 704 -114 704 -28 704 57 c 5
 960 57 l 5
 960 100 960 142 960 185 c 5
 704 185 l 5
 704 228 704 270 704 313 c 6
 960 313 l 5
 960 356 960 398 960 441 c 5
 704 441 l 5
 704 526 704 612 704 697 c 5
 576 697 l 5
 576 612 576 526 576 441 c 5
 448 441 l 5
 448 526 448 612 448 697 c 5
 320 697 l 5
 320 612 320 526 320 441 c 5
 64 441 l 5
 64 398 64 356 64 313 c 6
 320 313 l 5
 320 270 320 228 320 185 c 6
 64 185 l 5
 64 142 64 100 64 57 c 6
 320 57 l 5
 320 -28 320 -114 320 -199 c 5
 448 -199 l 5
 448 -114 448 -28 448 57 c 5
 576 57 l 5
 576 -28 576 -114 576 -199 c 5
 704 -199 l 5
576 185 m 5
 448 185 l 6
 448 228 448 270 448 313 c 5
 576 313 l 6
 576 270 576 228 576 185 c 5
EndSplineSet
Validated: 9
EndChar

StartChar: slash
Encoding: 47 47 36
Width: 1024
Flags: HW
LayerCount: 2
Fore
SplineSet
320 -135 m 5
 384 -135 l 5
 384 -71 l 5
 448 -71 l 5
 448 -28 448 14 448 57 c 5
 512 57 l 5
 512 121 l 5
 576 121 l 6
 576 164 576 206 576 249 c 6
 640 249 l 5
 640 313 l 5
 704 313 l 6
 704 356 704 398 704 441 c 6
 768 441 l 5
 768 505 l 5
 832 505 l 5
 832 697 l 5
 768 697 l 5
 768 633 l 5
 704 633 l 5
 704 590 704 548 704 505 c 5
 640 505 l 5
 640 441 l 5
 576 441 l 5
 576 377 l 5
 512 377 l 5
 512 334 512 292 512 249 c 5
 448 249 l 6
 448 206 448 164 448 121 c 6
 384 121 l 5
 384 57 l 5
 320 57 l 6
 320 14 320 -28 320 -71 c 6
 256 -71 l 5
 256 -114 256 -156 256 -199 c 6
 320 -199 l 5
 320 -135 l 5
EndSplineSet
Validated: 9
EndChar

StartChar: period
Encoding: 46 46 37
Width: 1024
Flags: HW
LayerCount: 2
Fore
SplineSet
332 -137 m 5
 396 -137 l 6
 396 -94 396 -52 396 -9 c 5
 204 -9 l 6
 204 -52 204 -94 204 -137 c 5
 268 -137 l 5
 268 -201 l 5
 332 -201 l 5
 332 -137 l 5
EndSplineSet
Validated: 9
EndChar

StartChar: parenleft
Encoding: 40 40 38
Width: 1024
Flags: HW
LayerCount: 2
Fore
SplineSet
704 -199 m 6
 704 -156 704 -114 704 -71 c 5
 576 -71 l 5
 576 -28 576 14 576 57 c 5
 512 57 l 5
 512 185 512 313 512 441 c 5
 576 441 l 6
 576 484 576 526 576 569 c 6
 704 569 l 6
 704 612 704 654 704 697 c 5
 576 697 l 5
 576 633 l 5
 448 633 l 5
 448 441 l 5
 384 441 l 6
 384 398 384 356 384 313 c 6
 320 313 l 6
 320 270 320 228 320 185 c 5
 384 185 l 5
 384 -7 l 5
 448 -7 l 5
 448 -50 448 -92 448 -135 c 5
 576 -135 l 5
 576 -199 l 5
 704 -199 l 6
EndSplineSet
Validated: 9
EndChar

StartChar: parenright
Encoding: 41 41 39
Width: 1024
Flags: HW
LayerCount: 2
Fore
SplineSet
448 -135 m 5
 576 -135 l 6
 576 -92 576 -50 576 -7 c 6
 640 -7 l 5
 640 185 l 5
 704 185 l 6
 704 228 704 270 704 313 c 5
 640 313 l 6
 640 356 640 398 640 441 c 6
 576 441 l 5
 576 633 l 5
 448 633 l 5
 448 697 l 5
 320 697 l 6
 320 654 320 612 320 569 c 5
 448 569 l 5
 448 526 448 484 448 441 c 5
 512 441 l 5
 512 313 512 185 512 57 c 5
 448 57 l 6
 448 14 448 -28 448 -71 c 6
 320 -71 l 6
 320 -114 320 -156 320 -199 c 5
 448 -199 l 5
 448 -135 l 5
EndSplineSet
Validated: 9
EndChar

StartChar: zero
Encoding: 48 48 40
Width: 1024
Flags: HW
LayerCount: 2
Fore
SplineSet
704 -141 m 5
 768 -141 l 5
 768 -98 768 -56 768 -13 c 5
 832 -13 l 5
 832 115 832 243 832 371 c 5
 768 371 l 6
 768 414 768 456 768 499 c 6
 704 499 l 5
 704 563 l 5
 384 563 l 5
 384 499 l 5
 256 499 l 5
 256 414 256 328 256 243 c 5
 192 243 l 5
 192 51 l 5
 256 51 l 6
 256 8 256 -34 256 -77 c 6
 320 -77 l 5
 320 -141 l 5
 384 -141 l 5
 384 -205 l 5
 704 -205 l 5
 704 -141 l 5
576 -141 m 5
 512 -141 l 5
 512 -77 l 5
 384 -77 l 5
 384 115 l 5
 320 115 l 5
 320 307 l 5
 384 307 l 5
 384 371 l 5
 448 371 l 5
 448 435 l 5
 640 435 l 5
 640 392 640 350 640 307 c 5
 704 307 l 5
 704 -13 l 5
 640 -13 l 5
 640 -77 l 5
 576 -77 l 5
 576 -141 l 5
EndSplineSet
Validated: 9
EndChar

StartChar: one
Encoding: 49 49 41
Width: 1024
Flags: HW
LayerCount: 2
Fore
SplineSet
640 -205 m 5
 640 499 l 5
 576 499 l 5
 576 563 l 5
 448 563 l 5
 448 499 l 5
 320 499 l 6
 320 456 320 414 320 371 c 5
 448 371 l 5
 448 435 l 5
 512 435 l 5
 512 222 512 8 512 -205 c 5
 640 -205 l 5
EndSplineSet
Validated: 9
EndChar

StartChar: two
Encoding: 50 50 42
Width: 1024
Flags: HW
LayerCount: 2
Fore
SplineSet
384 -141 m 6
 384 -98 384 -56 384 -13 c 5
 448 -13 l 5
 448 51 l 5
 512 51 l 5
 512 115 l 5
 576 115 l 5
 576 179 l 5
 704 179 l 6
 704 222 704 264 704 307 c 6
 768 307 l 5
 768 350 768 392 768 435 c 6
 704 435 l 5
 704 499 l 5
 640 499 l 5
 640 563 l 5
 384 563 l 5
 384 499 l 5
 256 499 l 5
 256 435 l 5
 192 435 l 6
 192 392 192 350 192 307 c 5
 320 307 l 5
 320 350 320 392 320 435 c 5
 640 435 l 5
 640 392 640 350 640 307 c 6
 576 307 l 5
 576 243 l 5
 512 243 l 5
 512 179 l 5
 384 179 l 5
 384 115 l 5
 320 115 l 5
 320 51 l 5
 256 51 l 5
 256 8 256 -34 256 -77 c 5
 192 -77 l 6
 192 -120 192 -162 192 -205 c 5
 768 -205 l 5
 768 -141 l 5
 384 -141 l 6
EndSplineSet
Validated: 9
EndChar

StartChar: three
Encoding: 51 51 43
Width: 1024
Flags: HW
LayerCount: 2
Fore
SplineSet
704 -131 m 5
 768 -131 l 5
 768 -46 768 40 768 125 c 5
 704 125 l 5
 704 253 704 381 704 509 c 5
 640 509 l 5
 640 573 l 5
 320 573 l 5
 320 509 l 5
 256 509 l 5
 256 445 l 5
 192 445 l 6
 192 402 192 360 192 317 c 5
 320 317 l 5
 320 360 320 402 320 445 c 5
 576 445 l 5
 576 381 l 5
 640 381 l 5
 640 317 l 5
 576 317 l 5
 576 253 l 5
 384 253 l 6
 384 210 384 168 384 125 c 5
 640 125 l 5
 640 -67 l 5
 576 -67 l 5
 576 -131 l 5
 384 -131 l 5
 384 -67 l 5
 320 -67 l 5
 320 -3 l 5
 192 -3 l 6
 192 -46 192 -88 192 -131 c 5
 320 -131 l 5
 320 -195 l 5
 704 -195 l 5
 704 -131 l 5
EndSplineSet
Validated: 9
EndChar

StartChar: four
Encoding: 52 52 44
Width: 1024
Flags: HW
LayerCount: 2
Fore
SplineSet
192 51 m 5
 192 -13 l 5
 256 -13 l 5
 256 -77 l 5
 640 -77 l 5
 640 -120 640 -162 640 -205 c 5
 704 -205 l 6
 704 -162 704 -120 704 -77 c 6
 832 -77 l 5
 832 -34 832 8 832 51 c 6
 704 51 l 5
 704 222 704 392 704 563 c 5
 576 563 l 5
 576 499 l 5
 512 499 l 5
 512 456 512 414 512 371 c 5
 448 371 l 5
 448 307 l 5
 384 307 l 6
 384 264 384 222 384 179 c 6
 320 179 l 5
 320 115 l 5
 256 115 l 5
 256 51 l 5
 192 51 l 5
640 51 m 5
 384 51 l 5
 384 115 l 5
 448 115 l 5
 448 179 l 5
 512 179 l 6
 512 222 512 264 512 307 c 6
 640 307 l 5
 640 222 640 136 640 51 c 5
EndSplineSet
Validated: 9
EndChar

StartChar: five
Encoding: 53 53 45
Width: 1024
Flags: HW
LayerCount: 2
Fore
SplineSet
640 -141 m 5
 704 -141 l 5
 704 -77 l 5
 768 -77 l 5
 768 8 768 94 768 179 c 5
 704 179 l 5
 704 243 l 5
 640 243 l 5
 640 307 l 5
 320 307 l 6
 320 350 320 392 320 435 c 5
 704 435 l 6
 704 478 704 520 704 563 c 5
 256 563 l 5
 256 499 l 5
 192 499 l 5
 192 371 192 243 192 115 c 5
 384 115 l 5
 384 179 l 5
 576 179 l 5
 576 115 l 5
 640 115 l 5
 640 -77 l 5
 512 -77 l 5
 512 -141 l 5
 384 -141 l 5
 384 -77 l 5
 320 -77 l 5
 320 -13 l 5
 192 -13 l 6
 192 -56 192 -98 192 -141 c 5
 256 -141 l 5
 256 -205 l 5
 640 -205 l 5
 640 -141 l 5
EndSplineSet
Validated: 9
EndChar

StartChar: six
Encoding: 54 54 46
Width: 1024
Flags: HW
LayerCount: 2
Fore
SplineSet
640 -141 m 5
 704 -141 l 5
 704 -77 l 5
 768 -77 l 5
 768 8 768 94 768 179 c 5
 704 179 l 5
 704 243 l 5
 640 243 l 5
 640 307 l 5
 384 307 l 5
 384 243 l 5
 320 243 l 6
 320 286 320 328 320 371 c 5
 384 371 l 5
 384 435 l 5
 640 435 l 5
 640 371 l 5
 768 371 l 5
 768 435 l 5
 704 435 l 5
 704 499 l 5
 576 499 l 5
 576 563 l 5
 384 563 l 5
 384 499 l 5
 320 499 l 5
 320 435 l 5
 256 435 l 5
 256 371 l 5
 192 371 l 5
 192 -77 l 5
 256 -77 l 5
 256 -141 l 5
 320 -141 l 5
 320 -205 l 5
 640 -205 l 5
 640 -141 l 5
576 -141 m 5
 384 -141 l 5
 384 -77 l 5
 320 -77 l 5
 320 8 320 94 320 179 c 5
 640 179 l 5
 640 115 l 5
 704 115 l 5
 704 51 l 5
 640 51 l 6
 640 8 640 -34 640 -77 c 6
 576 -77 l 5
 576 -141 l 5
EndSplineSet
Validated: 9
EndChar

StartChar: seven
Encoding: 55 55 47
Width: 1024
Flags: HW
LayerCount: 2
Fore
SplineSet
512 -205 m 6
 512 -162 512 -120 512 -77 c 6
 576 -77 l 5
 576 115 l 5
 640 115 l 5
 640 158 640 200 640 243 c 5
 704 243 l 6
 704 286 704 328 704 371 c 6
 768 371 l 5
 768 563 l 5
 256 563 l 5
 256 499 l 5
 192 499 l 5
 192 307 l 5
 320 307 l 5
 320 350 320 392 320 435 c 5
 384 435 l 5
 384 499 l 5
 512 499 l 5
 512 435 l 5
 576 435 l 5
 576 243 l 5
 512 243 l 5
 512 200 512 158 512 115 c 5
 448 115 l 5
 448 -77 l 5
 384 -77 l 6
 384 -120 384 -162 384 -205 c 5
 512 -205 l 6
EndSplineSet
Validated: 9
EndChar

StartChar: eight
Encoding: 56 56 48
Width: 1024
Flags: HW
LayerCount: 2
Fore
SplineSet
192 371 m 5
 192 307 l 5
 256 307 l 5
 256 115 l 5
 192 115 l 5
 192 -77 l 5
 256 -77 l 5
 256 -141 l 5
 320 -141 l 5
 320 -205 l 5
 640 -205 l 5
 640 -141 l 5
 704 -141 l 5
 704 -77 l 5
 576 -77 l 5
 576 -141 l 5
 384 -141 l 5
 384 -77 l 5
 320 -77 l 5
 320 -13 l 5
 256 -13 l 5
 256 51 l 5
 320 51 l 5
 320 115 l 5
 640 115 l 5
 640 51 l 5
 704 51 l 6
 704 8 704 -34 704 -77 c 6
 768 -77 l 5
 768 115 l 5
 704 115 l 5
 704 158 704 200 704 243 c 6
 768 243 l 5
 768 435 l 5
 704 435 l 5
 704 499 l 5
 640 499 l 5
 640 563 l 5
 320 563 l 5
 320 499 l 5
 256 499 l 5
 256 456 256 414 256 371 c 5
 192 371 l 5
576 243 m 5
 384 243 l 5
 384 307 l 5
 320 307 l 6
 320 350 320 392 320 435 c 5
 640 435 l 5
 640 392 640 350 640 307 c 6
 576 307 l 5
 576 243 l 5
EndSplineSet
Validated: 5
EndChar

StartChar: nine
Encoding: 57 57 49
Width: 1024
Flags: HW
LayerCount: 2
Fore
SplineSet
768 -205 m 5
 768 8 768 222 768 435 c 5
 704 435 l 5
 704 499 l 5
 640 499 l 5
 640 563 l 5
 384 563 l 5
 384 499 l 5
 256 499 l 5
 256 456 256 414 256 371 c 5
 192 371 l 5
 192 179 l 5
 256 179 l 5
 256 115 l 5
 320 115 l 5
 320 51 l 5
 640 51 l 5
 640 -34 640 -120 640 -205 c 5
 768 -205 l 5
640 179 m 5
 384 179 l 5
 384 243 l 5
 320 243 l 6
 320 286 320 328 320 371 c 5
 384 371 l 5
 384 435 l 5
 576 435 l 5
 576 371 l 5
 640 371 l 5
 640 179 l 5
EndSplineSet
Validated: 9
EndChar

StartChar: colon
Encoding: 58 58 50
Width: 1024
Flags: HW
LayerCount: 2
Fore
SplineSet
576 3 m 6
 576 46 576 88 576 131 c 5
 384 131 l 6
 384 88 384 46 384 3 c 5
 576 3 l 6
576 387 m 5
 576 579 l 5
 448 579 l 5
 448 515 l 5
 384 515 l 6
 384 472 384 430 384 387 c 5
 576 387 l 5
EndSplineSet
Validated: 9
EndChar

StartChar: question
Encoding: 63 63 51
Width: 1024
Flags: HW
LayerCount: 2
Fore
SplineSet
576 -205 m 6
 576 -162 576 -120 576 -77 c 5
 448 -77 l 6
 448 -120 448 -162 448 -205 c 5
 576 -205 l 6
576 -13 m 6
 576 30 576 72 576 115 c 6
 640 115 l 5
 640 179 l 5
 704 179 l 5
 704 243 l 5
 768 243 l 5
 768 435 l 5
 704 435 l 5
 704 499 l 5
 640 499 l 5
 640 563 l 5
 384 563 l 5
 384 499 l 5
 256 499 l 5
 256 307 l 5
 320 307 l 5
 320 371 l 5
 384 371 l 5
 384 435 l 5
 640 435 l 5
 640 243 l 5
 512 243 l 5
 512 179 l 5
 448 179 l 5
 448 -13 l 5
 576 -13 l 6
EndSplineSet
Validated: 9
EndChar

StartChar: less
Encoding: 60 60 52
Width: 1024
Flags: HW
LayerCount: 2
Fore
SplineSet
896 -199 m 5
 896 -156 896 -114 896 -71 c 6
 832 -71 l 5
 832 -7 l 5
 704 -7 l 5
 704 57 l 5
 512 57 l 5
 512 121 l 5
 384 121 l 5
 384 185 l 5
 320 185 l 5
 320 249 l 5
 448 249 l 5
 448 313 l 5
 576 313 l 5
 576 377 l 5
 704 377 l 5
 704 441 l 5
 896 441 l 5
 896 484 896 526 896 569 c 6
 704 569 l 5
 704 505 l 5
 576 505 l 5
 576 441 l 5
 448 441 l 5
 448 377 l 5
 320 377 l 5
 320 313 l 5
 192 313 l 5
 192 249 l 5
 128 249 l 5
 128 206 128 164 128 121 c 6
 256 121 l 5
 256 57 l 5
 448 57 l 5
 448 -7 l 5
 512 -7 l 5
 512 -71 l 5
 640 -71 l 5
 640 -135 l 5
 768 -135 l 5
 768 -199 l 5
 896 -199 l 5
EndSplineSet
Validated: 9
EndChar

StartChar: greater
Encoding: 62 62 53
Width: 1024
Flags: HW
LayerCount: 2
Fore
SplineSet
256 -135 m 5
 384 -135 l 5
 384 -71 l 5
 512 -71 l 5
 512 -7 l 5
 576 -7 l 5
 576 57 l 5
 768 57 l 5
 768 121 l 5
 896 121 l 5
 896 164 896 206 896 249 c 6
 832 249 l 5
 832 313 l 5
 704 313 l 5
 704 377 l 5
 576 377 l 5
 576 441 l 5
 448 441 l 5
 448 505 l 5
 320 505 l 5
 320 569 l 5
 128 569 l 5
 128 526 128 484 128 441 c 6
 320 441 l 5
 320 377 l 5
 448 377 l 5
 448 313 l 5
 576 313 l 5
 576 249 l 5
 704 249 l 5
 704 185 l 5
 640 185 l 5
 640 121 l 5
 512 121 l 5
 512 57 l 5
 320 57 l 5
 320 -7 l 5
 192 -7 l 5
 192 -71 l 5
 128 -71 l 5
 128 -114 128 -156 128 -199 c 6
 256 -199 l 5
 256 -135 l 5
EndSplineSet
Validated: 9
EndChar

StartChar: equal
Encoding: 61 61 54
Width: 1024
Flags: HW
LayerCount: 2
Fore
SplineSet
832 107 m 5
 832 150 832 192 832 235 c 6
 192 235 l 6
 192 192 192 150 192 107 c 5
 832 107 l 5
832 363 m 5
 832 406 832 448 832 491 c 6
 192 491 l 6
 192 448 192 406 192 363 c 5
 832 363 l 5
EndSplineSet
Validated: 9
EndChar

StartChar: semicolon
Encoding: 59 59 55
Width: 1024
Flags: HW
LayerCount: 2
Fore
SplineSet
512 33 m 5
 576 33 l 5
 576 225 l 5
 448 225 l 5
 448 140 448 54 448 -31 c 5
 512 -31 l 5
 512 33 l 5
576 417 m 5
 576 609 l 5
 448 609 l 5
 448 545 l 5
 384 545 l 6
 384 502 384 460 384 417 c 5
 576 417 l 5
EndSplineSet
Validated: 9
EndChar

StartChar: B
Encoding: 66 66 56
Width: 1024
Flags: HW
LayerCount: 2
Fore
SplineSet
768 -141 m 5
 832 -141 l 5
 832 -98 832 -56 832 -13 c 5
 896 -13 l 5
 896 30 896 72 896 115 c 6
 832 115 l 5
 832 179 l 5
 768 179 l 5
 768 243 l 5
 832 243 l 5
 832 328 832 414 832 499 c 5
 704 499 l 5
 704 563 l 5
 192 563 l 5
 192 499 l 5
 128 499 l 5
 128 286 128 72 128 -141 c 5
 192 -141 l 5
 192 -205 l 5
 768 -205 l 5
 768 -141 l 5
768 -77 m 6
 256 -77 l 5
 256 115 l 5
 704 115 l 5
 704 51 l 5
 768 51 l 5
 768 8 768 -34 768 -77 c 6
640 243 m 5
 320 243 l 5
 320 307 l 5
 256 307 l 5
 256 371 l 5
 320 371 l 5
 320 435 l 5
 640 435 l 5
 640 371 l 5
 704 371 l 5
 704 307 l 5
 640 307 l 5
 640 243 l 5
EndSplineSet
Validated: 9
EndChar

StartChar: C
Encoding: 67 67 57
Width: 1024
Flags: HW
LayerCount: 2
Fore
SplineSet
768 -141 m 5
 896 -141 l 5
 896 -98 896 -56 896 -13 c 6
 768 -13 l 5
 768 -77 l 5
 704 -77 l 5
 704 -141 l 5
 512 -141 l 5
 512 -77 l 5
 384 -77 l 5
 384 -13 l 5
 320 -13 l 5
 320 115 320 243 320 371 c 5
 384 371 l 5
 384 435 l 5
 704 435 l 5
 704 371 l 5
 768 371 l 5
 768 307 l 5
 896 307 l 5
 896 350 896 392 896 435 c 6
 832 435 l 5
 832 499 l 5
 704 499 l 5
 704 563 l 5
 384 563 l 5
 384 499 l 5
 256 499 l 5
 256 456 256 414 256 371 c 5
 192 371 l 6
 192 328 192 286 192 243 c 6
 128 243 l 5
 128 200 128 158 128 115 c 6
 192 115 l 5
 192 -77 l 5
 256 -77 l 5
 256 -141 l 5
 384 -141 l 5
 384 -205 l 5
 768 -205 l 5
 768 -141 l 5
EndSplineSet
Validated: 9
EndChar

StartChar: D
Encoding: 68 68 58
Width: 1024
Flags: HW
LayerCount: 2
Fore
SplineSet
640 -141 m 5
 704 -141 l 5
 704 -77 l 5
 768 -77 l 5
 768 -13 l 5
 832 -13 l 5
 832 115 832 243 832 371 c 5
 768 371 l 5
 768 435 l 5
 704 435 l 5
 704 499 l 5
 576 499 l 5
 576 563 l 5
 128 563 l 5
 128 307 128 51 128 -205 c 5
 640 -205 l 5
 640 -141 l 5
448 -141 m 5
 320 -141 l 5
 320 -77 l 5
 256 -77 l 5
 256 94 256 264 256 435 c 5
 576 435 l 5
 576 371 l 5
 640 371 l 5
 640 307 l 5
 704 307 l 5
 704 222 704 136 704 51 c 5
 640 51 l 6
 640 8 640 -34 640 -77 c 6
 448 -77 l 5
 448 -141 l 5
EndSplineSet
Validated: 9
EndChar

StartChar: E
Encoding: 69 69 59
Width: 1024
Flags: HW
LayerCount: 2
Fore
SplineSet
832 -205 m 5
 832 -162 832 -120 832 -77 c 6
 320 -77 l 5
 320 115 l 5
 832 115 l 5
 832 158 832 200 832 243 c 6
 320 243 l 5
 320 435 l 5
 832 435 l 5
 832 478 832 520 832 563 c 6
 128 563 l 5
 128 -141 l 5
 192 -141 l 5
 192 -205 l 5
 832 -205 l 5
EndSplineSet
Validated: 9
EndChar

StartChar: F
Encoding: 70 70 60
Width: 1024
Flags: HW
LayerCount: 2
Fore
SplineSet
320 -205 m 5
 320 115 l 5
 832 115 l 5
 832 158 832 200 832 243 c 6
 320 243 l 5
 320 435 l 5
 832 435 l 5
 832 478 832 520 832 563 c 6
 256 563 l 5
 256 499 l 5
 192 499 l 5
 192 -205 l 5
 320 -205 l 5
EndSplineSet
Validated: 9
EndChar

StartChar: G
Encoding: 71 71 61
Width: 1024
Flags: HW
LayerCount: 2
Fore
SplineSet
640 -141 m 5
 768 -141 l 5
 768 -205 l 5
 896 -205 l 5
 896 -77 896 51 896 179 c 5
 576 179 l 5
 576 136 576 94 576 51 c 6
 768 51 l 5
 768 -13 l 5
 704 -13 l 5
 704 -77 l 5
 576 -77 l 5
 576 -141 l 5
 448 -141 l 5
 448 -77 l 5
 320 -77 l 5
 320 -13 l 5
 256 -13 l 5
 256 307 l 5
 320 307 l 5
 320 371 l 5
 384 371 l 5
 384 435 l 5
 704 435 l 5
 704 371 l 5
 768 371 l 5
 768 307 l 5
 896 307 l 5
 896 350 896 392 896 435 c 6
 832 435 l 5
 832 499 l 5
 704 499 l 5
 704 563 l 5
 320 563 l 5
 320 499 l 5
 256 499 l 5
 256 435 l 5
 192 435 l 6
 192 392 192 350 192 307 c 6
 128 307 l 5
 128 -13 l 5
 192 -13 l 5
 192 -77 l 5
 256 -77 l 5
 256 -141 l 5
 320 -141 l 5
 320 -205 l 5
 640 -205 l 5
 640 -141 l 5
EndSplineSet
Validated: 9
EndChar

StartChar: H
Encoding: 72 72 62
Width: 1024
Flags: HW
LayerCount: 2
Fore
SplineSet
862 -205 m 1
 862 51 862 307 862 563 c 1
 734 563 l 1
 734 243 l 1
 350 243 l 1
 286 244 l 1
 286 307 l 1
 286 392 286 478 286 563 c 1
 158 563 l 1
 158 307 158 51 158 -205 c 1
 286 -205 l 1
 286 115 l 1
 734 115 l 1
 734 -205 l 1
 862 -205 l 1
EndSplineSet
Validated: 9
EndChar

StartChar: I
Encoding: 73 73 63
Width: 1024
Flags: HW
LayerCount: 2
Fore
SplineSet
330 -141 m 5
 330 -205 l 5
 650 -205 l 5
 650 -141 l 5
 586 -141 l 5
 586 72 586 286 586 499 c 5
 650 499 l 5
 650 563 l 5
 330 563 l 5
 330 499 l 5
 394 499 l 5
 394 286 394 72 394 -141 c 5
 330 -141 l 5
EndSplineSet
Validated: 9
EndChar

StartChar: J
Encoding: 74 74 64
Width: 1024
Flags: HW
LayerCount: 2
Fore
SplineSet
704 -141 m 5
 768 -141 l 5
 768 563 l 5
 640 563 l 5
 640 350 640 136 640 -77 c 5
 512 -77 l 5
 512 -141 l 5
 448 -141 l 5
 448 -77 l 5
 320 -77 l 5
 320 -13 l 5
 256 -13 l 5
 256 -56 256 -98 256 -141 c 6
 320 -141 l 5
 320 -205 l 5
 704 -205 l 5
 704 -141 l 5
EndSplineSet
Validated: 9
EndChar

StartChar: K
Encoding: 75 75 65
Width: 1024
Flags: HW
LayerCount: 2
Fore
SplineSet
822 -141 m 5
 822 -77 l 5
 758 -77 l 5
 758 -13 l 5
 694 -13 l 5
 694 51 l 5
 630 51 l 5
 630 115 l 5
 566 115 l 5
 566 179 l 5
 502 179 l 5
 502 243 l 5
 566 243 l 5
 566 307 l 5
 630 307 l 5
 630 371 l 5
 694 371 l 5
 694 435 l 5
 822 435 l 5
 822 478 822 520 822 563 c 6
 694 563 l 5
 694 499 l 5
 630 499 l 5
 630 435 l 5
 566 435 l 5
 566 371 l 5
 502 371 l 5
 502 307 l 5
 438 307 l 5
 438 243 l 5
 310 243 l 5
 310 563 l 5
 182 563 l 5
 182 307 182 51 182 -205 c 5
 310 -205 l 5
 310 115 l 5
 502 115 l 5
 502 51 l 5
 566 51 l 5
 566 -13 l 5
 630 -13 l 5
 630 -77 l 5
 694 -77 l 5
 694 -141 l 5
 758 -141 l 5
 758 -205 l 5
 886 -205 l 5
 886 -141 l 5
 822 -141 l 5
EndSplineSet
Validated: 9
EndChar

StartChar: L
Encoding: 76 76 66
Width: 1024
Flags: HW
LayerCount: 2
Fore
SplineSet
320 -77 m 1
 320 136 320 350 320 563 c 1
 192 563 l 1
 192 -141 l 1
 256 -141 l 1
 256 -205 l 1
 832 -205 l 1
 832 -162 832 -77 832 -77 c 2
 320 -77 l 1
576 -77 m 1025
EndSplineSet
Validated: 9
EndChar

StartChar: M
Encoding: 77 77 67
Width: 1024
Flags: HW
LayerCount: 2
Fore
SplineSet
940 -205 m 5
 940 51 940 307 940 563 c 5
 812 563 l 5
 812 499 l 5
 748 499 l 6
 748 456 748 414 748 371 c 6
 684 371 l 5
 684 328 684 286 684 243 c 5
 620 243 l 5
 620 51 l 5
 556 51 l 5
 556 -13 l 5
 492 -13 l 5
 492 30 492 72 492 115 c 5
 428 115 l 6
 428 158 428 200 428 243 c 6
 364 243 l 6
 364 286 364 328 364 371 c 6
 300 371 l 6
 300 414 300 456 300 499 c 6
 236 499 l 5
 236 563 l 5
 108 563 l 5
 108 307 108 51 108 -205 c 5
 236 -205 l 5
 236 243 l 5
 300 243 l 5
 300 51 l 5
 364 51 l 5
 364 8 364 -34 364 -77 c 5
 428 -77 l 5
 428 -141 l 5
 492 -141 l 5
 492 -205 l 5
 556 -205 l 5
 556 -141 l 5
 620 -141 l 5
 620 -77 l 5
 684 -77 l 5
 684 115 l 5
 748 115 l 5
 748 179 l 5
 812 179 l 5
 812 51 812 -77 812 -205 c 5
 940 -205 l 5
EndSplineSet
Validated: 9
EndChar

StartChar: N
Encoding: 78 78 68
Width: 1024
Flags: HW
LayerCount: 2
Fore
SplineSet
862 -205 m 5
 862 51 862 307 862 563 c 5
 734 563 l 5
 734 392 734 222 734 51 c 5
 670 51 l 5
 670 115 l 5
 606 115 l 5
 606 179 l 5
 542 179 l 5
 542 243 l 5
 478 243 l 5
 478 307 l 5
 414 307 l 6
 414 350 414 392 414 435 c 6
 350 435 l 5
 350 499 l 5
 286 499 l 5
 286 563 l 5
 158 563 l 5
 158 307 158 51 158 -205 c 5
 286 -205 l 5
 286 243 l 5
 414 243 l 5
 414 200 414 158 414 115 c 5
 478 115 l 5
 478 51 l 5
 542 51 l 5
 542 -13 l 5
 606 -13 l 5
 606 -77 l 5
 670 -77 l 5
 670 -120 670 -162 670 -205 c 5
 862 -205 l 5
EndSplineSet
Validated: 9
EndChar

StartChar: O
Encoding: 79 79 69
Width: 1024
Flags: HW
LayerCount: 2
Fore
SplineSet
738 -141 m 5
 802 -141 l 5
 802 -77 l 5
 866 -77 l 5
 866 -34 866 8 866 51 c 5
 930 51 l 5
 930 136 930 222 930 307 c 5
 866 307 l 6
 866 350 866 392 866 435 c 6
 802 435 l 5
 802 499 l 5
 738 499 l 5
 738 563 l 5
 290 563 l 5
 290 499 l 5
 226 499 l 5
 226 435 l 5
 162 435 l 5
 162 243 l 5
 98 243 l 5
 98 51 l 5
 162 51 l 5
 162 8 162 -34 162 -77 c 5
 226 -77 l 5
 226 -141 l 5
 290 -141 l 5
 290 -205 l 5
 738 -205 l 5
 738 -141 l 5
610 -141 m 5
 418 -141 l 5
 418 -77 l 5
 290 -77 l 6
 290 -34 290 8 290 51 c 6
 226 51 l 5
 226 136 226 222 226 307 c 5
 290 307 l 5
 290 371 l 5
 354 371 l 5
 354 435 l 5
 674 435 l 5
 674 371 l 5
 738 371 l 5
 738 328 738 286 738 243 c 5
 802 243 l 5
 802 158 802 72 802 -13 c 5
 738 -13 l 5
 738 -77 l 5
 610 -77 l 5
 610 -141 l 5
EndSplineSet
Validated: 9
EndChar

StartChar: P
Encoding: 80 80 70
Width: 1024
Flags: HW
LayerCount: 2
Fore
SplineSet
286 -205 m 5
 286 115 l 5
 798 115 l 5
 798 179 l 5
 862 179 l 5
 862 264 862 350 862 435 c 5
 798 435 l 5
 798 499 l 5
 734 499 l 5
 734 563 l 5
 222 563 l 5
 222 499 l 5
 158 499 l 5
 158 -205 l 5
 286 -205 l 5
478 179 m 5
 350 179 l 5
 350 243 l 5
 286 243 l 5
 286 307 l 5
 222 307 l 5
 222 371 l 5
 286 371 l 5
 286 435 l 5
 414 435 l 5
 414 499 l 5
 478 499 l 5
 478 435 l 5
 670 435 l 5
 670 371 l 5
 734 371 l 6
 734 328 734 286 734 243 c 5
 478 243 l 5
 478 179 l 5
EndSplineSet
Validated: 9
EndChar

StartChar: Q
Encoding: 81 81 71
Width: 1024
Flags: HW
LayerCount: 2
Fore
SplineSet
876 -205 m 5
 876 -162 876 -120 876 -77 c 6
 812 -77 l 6
 812 -34 812 8 812 51 c 5
 876 51 l 5
 876 94 876 136 876 179 c 5
 940 179 l 5
 940 222 940 264 940 307 c 5
 876 307 l 6
 876 350 876 392 876 435 c 6
 812 435 l 5
 812 499 l 5
 748 499 l 5
 748 563 l 5
 684 563 l 5
 684 627 l 5
 364 627 l 5
 364 563 l 5
 236 563 l 5
 236 499 l 5
 172 499 l 6
 172 456 172 414 172 371 c 6
 108 371 l 5
 108 51 l 5
 172 51 l 5
 172 -13 l 5
 236 -13 l 5
 236 -77 l 5
 300 -77 l 5
 300 -141 l 5
 812 -141 l 5
 812 -205 l 5
 876 -205 l 5
620 -77 m 5
 428 -77 l 6
 428 -34 428 8 428 51 c 5
 556 51 l 5
 556 -13 l 5
 620 -13 l 5
 620 -77 l 5
748 51 m 6
 620 51 l 5
 620 115 l 5
 364 115 l 5
 364 51 l 5
 236 51 l 5
 236 371 l 5
 300 371 l 5
 300 435 l 5
 364 435 l 5
 364 499 l 5
 684 499 l 5
 684 435 l 5
 748 435 l 5
 748 392 748 350 748 307 c 5
 812 307 l 5
 812 264 812 222 812 179 c 6
 748 179 l 6
 748 136 748 94 748 51 c 6
EndSplineSet
Validated: 9
EndChar

StartChar: R
Encoding: 82 82 72
Width: 1024
Flags: HW
LayerCount: 2
Fore
SplineSet
842 -205 m 5
 842 -162 842 -120 842 -77 c 6
 778 -77 l 5
 778 -13 l 5
 714 -13 l 5
 714 30 714 72 714 115 c 6
 778 115 l 5
 778 179 l 5
 842 179 l 5
 842 499 l 5
 778 499 l 5
 778 563 l 5
 202 563 l 5
 202 499 l 5
 138 499 l 5
 138 -205 l 5
 266 -205 l 5
 266 -120 266 -34 266 51 c 5
 394 51 l 5
 394 115 l 5
 458 115 l 5
 458 51 l 5
 586 51 l 5
 586 -13 l 5
 650 -13 l 5
 650 -56 650 -98 650 -141 c 5
 714 -141 l 5
 714 -205 l 5
 842 -205 l 5
714 243 m 5
 330 243 l 5
 330 307 l 5
 266 307 l 5
 266 371 l 5
 330 371 l 5
 330 435 l 5
 650 435 l 5
 650 371 l 5
 714 371 l 6
 714 328 714 286 714 243 c 5
EndSplineSet
Validated: 9
EndChar

StartChar: S
Encoding: 83 83 73
Width: 1024
Flags: HW
LayerCount: 2
Fore
SplineSet
138 -13 m 5
 138 -77 l 5
 202 -77 l 5
 202 -141 l 5
 330 -141 l 5
 330 -205 l 5
 778 -205 l 5
 778 -141 l 5
 842 -141 l 5
 842 -56 842 30 842 115 c 5
 778 115 l 5
 778 179 l 5
 586 179 l 5
 586 243 l 5
 394 243 l 5
 394 307 l 5
 330 307 l 6
 330 350 330 392 330 435 c 5
 650 435 l 5
 650 371 l 5
 778 371 l 5
 778 414 778 456 778 499 c 6
 714 499 l 5
 714 563 l 5
 266 563 l 5
 266 499 l 5
 202 499 l 5
 202 414 202 328 202 243 c 5
 266 243 l 5
 266 179 l 5
 394 179 l 5
 394 115 l 5
 650 115 l 5
 650 51 l 5
 714 51 l 6
 714 8 714 -34 714 -77 c 5
 586 -77 l 5
 586 -141 l 5
 394 -141 l 5
 394 -77 l 5
 330 -77 l 5
 330 -13 l 5
 138 -13 l 5
EndSplineSet
Validated: 9
EndChar

StartChar: T
Encoding: 84 84 74
Width: 1024
Flags: HW
LayerCount: 2
Fore
SplineSet
610 -205 m 5
 610 8 610 222 610 435 c 5
 930 435 l 5
 930 478 930 520 930 563 c 5
 98 563 l 5
 98 520 98 478 98 435 c 6
 418 435 l 5
 482 434 l 5
 482 371 l 5
 482 -205 l 5
 610 -205 l 5
EndSplineSet
Validated: 9
EndChar

StartChar: U
Encoding: 85 85 75
Width: 1024
Flags: HW
LayerCount: 2
Fore
SplineSet
724 -141 m 5
 788 -141 l 5
 788 -77 l 5
 852 -77 l 5
 852 136 852 350 852 563 c 5
 724 563 l 5
 724 350 724 136 724 -77 c 5
 596 -77 l 5
 596 -141 l 5
 468 -141 l 5
 468 -77 l 5
 340 -77 l 5
 340 -13 l 5
 276 -13 l 5
 276 563 l 5
 148 563 l 5
 148 350 148 136 148 -77 c 5
 212 -77 l 5
 212 -141 l 5
 276 -141 l 5
 276 -205 l 5
 724 -205 l 5
 724 -141 l 5
EndSplineSet
Validated: 9
EndChar

StartChar: V
Encoding: 86 86 76
Width: 1024
Flags: HW
LayerCount: 2
Fore
SplineSet
580 -205 m 5
 580 -162 580 -120 580 -77 c 5
 644 -77 l 5
 644 115 l 5
 708 115 l 5
 708 179 l 5
 772 179 l 5
 772 222 772 264 772 307 c 5
 836 307 l 5
 836 350 836 392 836 435 c 5
 900 435 l 5
 900 478 900 520 900 563 c 5
 772 563 l 5
 772 499 l 5
 708 499 l 6
 708 456 708 414 708 371 c 6
 644 371 l 5
 644 179 l 5
 580 179 l 6
 580 136 580 94 580 51 c 6
 516 51 l 5
 516 -13 l 5
 452 -13 l 5
 452 30 452 72 452 115 c 5
 388 115 l 6
 388 158 388 200 388 243 c 6
 324 243 l 6
 324 286 324 328 324 371 c 6
 260 371 l 5
 260 563 l 5
 132 563 l 5
 132 371 l 5
 196 371 l 6
 196 328 196 286 196 243 c 6
 260 243 l 5
 260 200 260 158 260 115 c 5
 324 115 l 5
 324 72 324 30 324 -13 c 5
 388 -13 l 5
 388 -56 388 -98 388 -141 c 5
 452 -141 l 5
 452 -205 l 5
 580 -205 l 5
EndSplineSet
Validated: 9
EndChar

StartChar: W
Encoding: 87 87 77
Width: 1024
Flags: HW
LayerCount: 2
Fore
SplineSet
832 -205 m 5
 832 -13 l 5
 896 -13 l 5
 896 179 l 5
 960 179 l 5
 960 307 960 435 960 563 c 5
 832 563 l 5
 832 243 l 5
 768 243 l 5
 768 51 l 5
 704 51 l 5
 704 94 704 136 704 179 c 5
 640 179 l 5
 640 264 640 350 640 435 c 5
 576 435 l 5
 576 478 576 520 576 563 c 5
 448 563 l 6
 448 520 448 478 448 435 c 6
 384 435 l 5
 384 115 l 5
 256 115 l 5
 256 307 l 5
 192 307 l 5
 192 392 192 478 192 563 c 5
 64 563 l 5
 64 478 64 392 64 307 c 5
 128 307 l 5
 128 222 128 136 128 51 c 5
 192 51 l 5
 192 -141 l 5
 256 -141 l 5
 256 -205 l 5
 384 -205 l 5
 384 -13 l 5
 448 -13 l 5
 448 179 l 5
 512 179 l 5
 512 243 l 5
 576 243 l 5
 576 158 576 72 576 -13 c 5
 640 -13 l 5
 640 -205 l 5
 832 -205 l 5
EndSplineSet
Validated: 9
EndChar

StartChar: X
Encoding: 88 88 78
Width: 1024
Flags: HW
LayerCount: 2
Fore
SplineSet
862 -205 m 5
 862 -162 862 -120 862 -77 c 6
 798 -77 l 5
 798 -13 l 5
 734 -13 l 5
 734 51 l 5
 670 51 l 6
 670 94 670 136 670 179 c 6
 606 179 l 5
 606 243 l 5
 670 243 l 5
 670 307 l 5
 734 307 l 5
 734 371 l 5
 798 371 l 5
 798 435 l 5
 862 435 l 5
 862 478 862 520 862 563 c 6
 734 563 l 5
 734 499 l 5
 670 499 l 6
 670 456 670 414 670 371 c 6
 542 371 l 5
 542 307 l 5
 478 307 l 5
 478 371 l 5
 350 371 l 6
 350 414 350 456 350 499 c 6
 286 499 l 5
 286 563 l 5
 158 563 l 5
 158 520 158 478 158 435 c 6
 222 435 l 5
 222 371 l 5
 286 371 l 5
 286 307 l 5
 350 307 l 5
 350 243 l 5
 414 243 l 5
 414 200 414 158 414 115 c 6
 350 115 l 5
 350 51 l 5
 286 51 l 5
 286 -13 l 5
 222 -13 l 5
 222 -77 l 5
 158 -77 l 5
 158 -120 158 -162 158 -205 c 6
 286 -205 l 5
 286 -141 l 5
 350 -141 l 5
 350 -98 350 -56 350 -13 c 5
 414 -13 l 5
 414 51 l 5
 606 51 l 5
 606 -13 l 5
 670 -13 l 5
 670 -77 l 5
 734 -77 l 6
 734 -120 734 -162 734 -205 c 6
 862 -205 l 5
EndSplineSet
Validated: 9
EndChar

StartChar: Y
Encoding: 89 89 79
Width: 1024
Flags: HW
LayerCount: 2
Fore
SplineSet
576 -205 m 5
 576 115 l 5
 640 115 l 5
 640 158 640 200 640 243 c 5
 704 243 l 5
 704 307 l 5
 768 307 l 5
 768 371 l 5
 832 371 l 5
 832 435 l 5
 896 435 l 5
 896 478 896 520 896 563 c 6
 768 563 l 5
 768 499 l 5
 704 499 l 5
 704 456 704 414 704 371 c 5
 640 371 l 5
 640 307 l 5
 576 307 l 5
 576 243 l 5
 448 243 l 5
 448 307 l 5
 384 307 l 5
 384 371 l 5
 320 371 l 6
 320 414 320 456 320 499 c 6
 256 499 l 5
 256 563 l 5
 128 563 l 5
 128 520 128 478 128 435 c 6
 192 435 l 5
 192 371 l 5
 256 371 l 5
 256 307 l 5
 320 307 l 5
 320 243 l 5
 384 243 l 5
 384 179 l 5
 448 179 l 5
 448 51 448 -77 448 -205 c 5
 576 -205 l 5
EndSplineSet
Validated: 9
EndChar

StartChar: Z
Encoding: 90 90 80
Width: 1024
Flags: HW
LayerCount: 2
Fore
SplineSet
852 -205 m 5
 852 -162 852 -120 852 -77 c 6
 340 -77 l 5
 340 -13 l 5
 404 -13 l 5
 404 51 l 5
 468 51 l 5
 468 115 l 5
 532 115 l 5
 532 179 l 5
 596 179 l 5
 596 243 l 5
 660 243 l 5
 660 307 l 5
 724 307 l 5
 724 371 l 5
 788 371 l 5
 788 563 l 5
 212 563 l 6
 212 520 212 478 212 435 c 5
 532 435 l 6
 532 392 532 350 532 307 c 5
 468 307 l 5
 468 243 l 5
 404 243 l 5
 404 179 l 5
 340 179 l 5
 340 115 l 5
 276 115 l 5
 276 51 l 5
 212 51 l 6
 212 8 212 -34 212 -77 c 6
 148 -77 l 5
 148 -120 148 -162 148 -205 c 6
 852 -205 l 5
EndSplineSet
Validated: 9
EndChar

StartChar: p
Encoding: 112 112 81
Width: 1024
Flags: HW
LayerCount: 2
Fore
SplineSet
320 -205 m 5
 320 -162 320 -120 320 -77 c 5
 640 -77 l 5
 640 -13 l 5
 704 -13 l 5
 704 51 l 5
 768 51 l 5
 768 371 l 5
 704 371 l 5
 704 435 l 5
 640 435 l 5
 640 499 l 5
 192 499 l 5
 192 -205 l 5
 320 -205 l 5
640 51 m 5
 320 51 l 5
 320 136 320 222 320 307 c 5
 384 307 l 5
 384 371 l 5
 576 371 l 5
 576 307 l 5
 640 307 l 5
 640 222 640 136 640 51 c 5
EndSplineSet
Validated: 9
EndChar

StartChar: q
Encoding: 113 113 82
Width: 1024
Flags: HW
LayerCount: 2
Fore
SplineSet
566 -13 m 5
 438 -13 l 5
 438 51 l 5
 374 51 l 6
 374 94 374 136 374 179 c 6
 310 179 l 5
 310 243 l 5
 374 243 l 5
 374 286 374 328 374 371 c 5
 630 371 l 5
 630 307 l 5
 694 307 l 5
 694 115 l 5
 630 115 l 5
 630 51 l 5
 566 51 l 5
 566 -13 l 5
822 -205 m 5
 822 435 l 5
 758 435 l 5
 758 499 l 5
 694 499 l 5
 694 435 l 5
 630 435 l 5
 630 499 l 5
 374 499 l 5
 374 435 l 5
 310 435 l 5
 310 371 l 5
 246 371 l 5
 246 328 246 286 246 243 c 5
 182 243 l 5
 182 179 l 5
 246 179 l 6
 246 136 246 94 246 51 c 6
 310 51 l 5
 310 -13 l 5
 374 -13 l 5
 374 -77 l 5
 694 -77 l 6
 694 -120 694 -205 694 -205 c 6
 822 -205 l 5
EndSplineSet
Validated: 9
EndChar

StartChar: r
Encoding: 114 114 83
Width: 1024
Flags: HW
LayerCount: 2
Fore
SplineSet
394 -201 m 5
 394 -73 394 55 394 183 c 5
 458 183 l 5
 458 247 l 5
 714 247 l 6
 714 290 714 332 714 375 c 5
 458 375 l 5
 458 311 l 5
 394 311 l 5
 394 375 l 5
 266 375 l 5
 266 -201 l 5
 394 -201 l 5
EndSplineSet
Validated: 9
EndChar

StartChar: s
Encoding: 115 115 84
Width: 1024
Flags: HW
LayerCount: 2
Fore
SplineSet
704 -137 m 5
 768 -137 l 5
 768 55 l 5
 704 55 l 5
 704 119 l 5
 512 119 l 5
 512 183 l 5
 448 183 l 5
 448 247 l 5
 640 247 l 5
 640 183 l 5
 768 183 l 5
 768 226 768 268 768 311 c 6
 640 311 l 5
 640 375 l 5
 384 375 l 5
 384 311 l 5
 320 311 l 5
 320 226 320 140 320 55 c 5
 576 55 l 5
 576 -9 l 5
 640 -9 l 5
 640 -73 l 5
 576 -73 l 5
 576 -137 l 5
 448 -137 l 5
 448 -73 l 5
 384 -73 l 5
 384 -9 l 5
 256 -9 l 5
 256 -52 256 -94 256 -137 c 6
 320 -137 l 5
 320 -201 l 5
 704 -201 l 5
 704 -137 l 5
EndSplineSet
Validated: 9
EndChar

StartChar: t
Encoding: 116 116 85
Width: 1024
Flags: HW
LayerCount: 2
Fore
SplineSet
256 307 m 5
 256 243 l 5
 384 243 l 5
 384 115 384 -13 384 -141 c 5
 448 -141 l 5
 448 -205 l 5
 704 -205 l 5
 704 -141 l 5
 768 -141 l 5
 768 -77 l 5
 512 -77 l 5
 512 8 512 94 512 179 c 5
 576 179 l 5
 576 243 l 5
 704 243 l 6
 704 286 704 328 704 371 c 5
 512 371 l 5
 512 414 512 456 512 499 c 5
 384 499 l 6
 384 456 384 414 384 371 c 6
 320 371 l 5
 320 307 l 5
 256 307 l 5
EndSplineSet
Validated: 9
EndChar

StartChar: u
Encoding: 117 117 86
Width: 1024
Flags: HW
LayerCount: 2
Fore
SplineSet
596 -137 m 5
 660 -137 l 5
 660 -201 l 5
 788 -201 l 5
 788 375 l 5
 660 375 l 5
 660 247 660 119 660 -9 c 5
 596 -9 l 5
 596 -73 l 5
 532 -73 l 5
 532 -137 l 5
 404 -137 l 5
 404 -73 l 5
 340 -73 l 5
 340 375 l 5
 212 375 l 5
 212 204 212 34 212 -137 c 5
 276 -137 l 5
 276 -201 l 5
 596 -201 l 5
 596 -137 l 5
EndSplineSet
Validated: 9
EndChar

StartChar: v
Encoding: 118 118 87
Width: 1024
Flags: HW
LayerCount: 2
Fore
SplineSet
596 -201 m 5
 596 -9 l 5
 660 -9 l 5
 660 55 l 5
 724 55 l 6
 724 98 724 140 724 183 c 6
 788 183 l 5
 788 375 l 5
 660 375 l 6
 660 332 660 290 660 247 c 6
 596 247 l 5
 596 55 l 5
 532 55 l 5
 532 -9 l 5
 468 -9 l 5
 468 55 l 5
 404 55 l 6
 404 98 404 140 404 183 c 6
 340 183 l 5
 340 375 l 5
 212 375 l 6
 212 332 212 290 212 247 c 5
 276 247 l 5
 276 55 l 5
 340 55 l 5
 340 12 340 -30 340 -73 c 5
 404 -73 l 5
 404 -116 404 -158 404 -201 c 5
 596 -201 l 5
EndSplineSet
Validated: 9
EndChar

StartChar: w
Encoding: 119 119 88
Width: 1024
Flags: HW
LayerCount: 2
Fore
SplineSet
768 -201 m 5
 768 -158 768 -116 768 -73 c 5
 832 -73 l 5
 832 119 l 5
 896 119 l 5
 896 162 896 204 896 247 c 5
 960 247 l 5
 960 290 960 332 960 375 c 5
 832 375 l 5
 832 183 l 5
 768 183 l 6
 768 140 768 98 768 55 c 6
 704 55 l 5
 704 -9 l 5
 640 -9 l 5
 640 183 l 5
 576 183 l 5
 576 375 l 5
 448 375 l 6
 448 332 448 290 448 247 c 6
 384 247 l 5
 384 162 384 76 384 -9 c 5
 320 -9 l 5
 320 55 l 5
 256 55 l 5
 256 98 256 140 256 183 c 5
 192 183 l 5
 192 375 l 5
 64 375 l 5
 64 332 64 290 64 247 c 6
 128 247 l 5
 128 55 l 5
 192 55 l 5
 192 12 192 -30 192 -73 c 5
 256 -73 l 6
 256 -116 256 -158 256 -201 c 6
 384 -201 l 5
 384 -9 l 5
 448 -9 l 5
 448 55 l 5
 512 55 l 5
 512 119 l 5
 576 119 l 5
 576 -73 l 5
 640 -73 l 5
 640 -116 640 -158 640 -201 c 5
 768 -201 l 5
EndSplineSet
Validated: 5
EndChar

StartChar: x
Encoding: 120 120 89
Width: 1024
Flags: HW
LayerCount: 2
Fore
SplineSet
202 -137 m 5
 202 -201 l 5
 330 -201 l 5
 330 -137 l 5
 394 -137 l 5
 394 -94 394 -52 394 -9 c 6
 330 -9 l 5
 330 -73 l 5
 266 -73 l 5
 266 -137 l 5
 202 -137 l 5
778 -201 m 5
 778 -158 778 -116 778 -73 c 6
 714 -73 l 5
 714 -9 l 5
 650 -9 l 5
 650 55 l 5
 586 55 l 5
 586 98 586 140 586 183 c 6
 650 183 l 5
 650 247 l 5
 778 247 l 5
 778 311 l 5
 714 311 l 5
 714 375 l 5
 650 375 l 5
 650 311 l 5
 586 311 l 5
 586 247 l 5
 522 247 l 5
 522 183 l 5
 458 183 l 5
 458 247 l 5
 394 247 l 5
 394 311 l 5
 330 311 l 5
 330 375 l 5
 266 375 l 5
 266 332 266 290 266 247 c 6
 330 247 l 5
 330 204 330 162 330 119 c 5
 394 119 l 5
 394 76 394 34 394 -9 c 5
 522 -9 l 5
 522 -73 l 5
 586 -73 l 5
 586 -137 l 5
 650 -137 l 5
 650 -201 l 5
 778 -201 l 5
EndSplineSet
Validated: 5
EndChar

StartChar: y
Encoding: 121 121 90
Width: 1024
Flags: HW
LayerCount: 2
Fore
SplineSet
236 -77 m 5
 236 -141 l 5
 300 -141 l 5
 300 -205 l 5
 428 -205 l 5
 428 -141 l 5
 300 -141 l 5
 300 -77 l 5
 236 -77 l 5
428 -141 m 5
 492 -141 l 5
 492 -77 l 5
 556 -77 l 6
 556 -34 556 8 556 51 c 6
 620 51 l 5
 620 94 620 136 620 179 c 5
 684 179 l 5
 684 243 l 5
 748 243 l 5
 748 286 748 328 748 371 c 5
 812 371 l 5
 812 435 l 5
 748 435 l 5
 748 499 l 5
 684 499 l 5
 684 456 684 414 684 371 c 5
 620 371 l 6
 620 328 620 286 620 243 c 6
 556 243 l 5
 556 200 556 158 556 115 c 5
 492 115 l 5
 492 179 l 5
 428 179 l 6
 428 222 428 264 428 307 c 6
 364 307 l 6
 364 350 364 392 364 435 c 6
 300 435 l 5
 300 499 l 5
 236 499 l 5
 236 456 236 414 236 371 c 6
 300 371 l 5
 300 328 300 286 300 243 c 5
 364 243 l 5
 364 200 364 158 364 115 c 5
 428 115 l 5
 428 30 428 -56 428 -141 c 5
EndSplineSet
Validated: 5
EndChar

StartChar: z
Encoding: 122 122 91
Width: 1024
Flags: HW
LayerCount: 2
Fore
SplineSet
394 -137 m 5
 394 -73 l 5
 458 -73 l 5
 458 -9 l 5
 522 -9 l 5
 522 55 l 5
 586 55 l 6
 586 98 586 140 586 183 c 6
 650 183 l 5
 650 247 l 5
 714 247 l 6
 714 290 714 332 714 375 c 5
 330 375 l 6
 330 332 330 290 330 247 c 5
 522 247 l 6
 522 204 522 162 522 119 c 5
 458 119 l 5
 458 55 l 5
 394 55 l 5
 394 -9 l 5
 330 -9 l 5
 330 -73 l 5
 266 -73 l 5
 266 -116 266 -158 266 -201 c 6
 714 -201 l 5
 714 -137 l 5
 394 -137 l 5
EndSplineSet
Validated: 9
EndChar

StartChar: asciitilde
Encoding: 126 126 92
Width: 1024
Flags: HW
LayerCount: 2
Fore
SplineSet
768 83 m 1
 768 126 768 168 768 211 c 1
 832 211 l 1
 832 275 l 1
 896 275 l 1
 896 467 l 1
 832 467 l 1
 832 403 l 1
 768 403 l 1
 768 339 l 1
 704 339 l 1
 704 275 l 1
 576 275 l 1
 576 339 l 1
 512 339 l 1
 512 403 l 1
 448 403 l 1
 448 467 l 1
 320 467 l 1
 320 531 l 1
 192 531 l 2
 192 488 192 446 192 403 c 2
 128 403 l 1
 128 339 l 1
 64 339 l 1
 64 147 l 1
 192 147 l 1
 192 190 192 232 192 275 c 1
 256 275 l 1
 256 339 l 1
 448 339 l 1
 448 296 448 254 448 211 c 1
 512 211 l 1
 512 147 l 1
 576 147 l 1
 576 83 l 1
 768 83 l 1
EndSplineSet
Validated: 9
EndChar

StartChar: ccedilla
Encoding: 231 231 93
Width: 1024
Flags: HW
LayerCount: 2
Fore
SplineSet
384 -139 m 5
 384 -203 l 5
 448 -203 l 5
 448 -139 l 5
 384 -139 l 5
448 -139 m 5
 512 -139 l 5
 512 -75 l 5
 576 -75 l 5
 576 -11 l 5
 448 -11 l 6
 448 -54 448 -96 448 -139 c 5
704 117 m 5
 768 117 l 5
 768 181 l 5
 640 181 l 5
 640 117 l 5
 448 117 l 5
 448 181 l 5
 384 181 l 5
 384 266 384 352 384 437 c 5
 448 437 l 5
 448 501 l 5
 704 501 l 5
 704 437 l 5
 768 437 l 5
 768 480 768 522 768 565 c 6
 640 565 l 5
 640 629 l 5
 448 629 l 5
 448 565 l 5
 320 565 l 5
 320 501 l 5
 256 501 l 5
 256 181 l 5
 320 181 l 5
 320 117 l 5
 384 117 l 5
 384 53 l 5
 704 53 l 5
 704 117 l 5
EndSplineSet
Validated: 5
EndChar

StartChar: ograve
Encoding: 242 242 94
Width: 1024
Flags: HW
LayerCount: 2
Fore
SplineSet
694 -135 m 5
 758 -135 l 5
 758 -92.3330078125 758 -49.6669921875 758 -7 c 5
 822 -7 l 5
 822 185 l 5
 758 185 l 5
 758 249 l 5
 694 249 l 5
 694 313 l 5
 630 313 l 5
 630 377 l 5
 374 377 l 5
 374 313 l 5
 246 313 l 5
 246 270.333007812 246 227.666992188 246 185 c 5
 182 185 l 5
 182 -7 l 5
 246 -7 l 6
 246 -49.6669921875 246 -92.3330078125 246 -135 c 6
 310 -135 l 5
 310 -199 l 5
 694 -199 l 5
 694 -135 l 5
566 -135 m 5
 438 -135 l 5
 438 -71 l 5
 374 -71 l 5
 374 -7 l 5
 310 -7 l 5
 310 185 l 5
 374 185 l 5
 374 249 l 5
 630 249 l 5
 630 185 l 5
 694 185 l 5
 694 99.6669921875 694 14.3330078125 694 -71 c 5
 566 -71 l 5
 566 -135 l 5
566 569 m 5
 566 611.666992188 566 654.333007812 566 697 c 5
 502 697 l 5
 502 761 l 5
 438 761 l 5
 438 569 l 5
 502 569 l 5
 502 505 l 5
 630 505 l 5
 630 569 l 5
 566 569 l 5
EndSplineSet
Validated: 9
EndChar

StartChar: oacute
Encoding: 243 243 95
Width: 1024
Flags: HW
LayerCount: 2
Fore
SplineSet
374 569 m 5
 374 505 l 5
 502 505 l 5
 502 569 l 5
 566 569 l 5
 566 761 l 5
 502 761 l 5
 502 697 l 5
 438 697 l 6
 438 654.333007812 438 611.666992188 438 569 c 6
 374 569 l 5
694 -135 m 5
 758 -135 l 5
 758 -92.3330078125 758 -49.6669921875 758 -7 c 5
 822 -7 l 5
 822 185 l 5
 758 185 l 6
 758 227.666992188 758 270.333007812 758 313 c 6
 630 313 l 5
 630 377 l 5
 374 377 l 5
 374 313 l 5
 246 313 l 5
 246 270.333007812 246 227.666992188 246 185 c 5
 182 185 l 5
 182 -7 l 5
 246 -7 l 6
 246 -49.6669921875 246 -92.3330078125 246 -135 c 6
 310 -135 l 5
 310 -199 l 5
 694 -199 l 5
 694 -135 l 5
566 -135 m 5
 438 -135 l 5
 438 -71 l 5
 374 -71 l 5
 374 -7 l 5
 310 -7 l 5
 310 185 l 5
 374 185 l 5
 374 249 l 5
 630 249 l 5
 630 206.333007812 630 163.666992188 630 121 c 5
 694 121 l 5
 694 -71 l 5
 566 -71 l 5
 566 -135 l 5
EndSplineSet
Validated: 9
EndChar

StartChar: ocircumflex
Encoding: 244 244 96
Width: 1024
Flags: HW
LayerCount: 2
Fore
SplineSet
236 569 m 5
 236 505 l 5
 364 505 l 5
 364 569 l 5
 428 569 l 5
 428 633 l 5
 556 633 l 5
 556 569 l 5
 620 569 l 5
 620 505 l 5
 748 505 l 5
 748 569 l 5
 684 569 l 5
 684 633 l 5
 620 633 l 5
 620 697 l 5
 556 697 l 5
 556 761 l 5
 428 761 l 5
 428 697 l 5
 364 697 l 5
 364 633 l 5
 300 633 l 5
 300 569 l 5
 236 569 l 5
684 -135 m 5
 748 -135 l 5
 748 -92 748 -50 748 -7 c 5
 812 -7 l 5
 812 185 l 5
 748 185 l 6
 748 228 748 270 748 313 c 6
 620 313 l 5
 620 377 l 5
 364 377 l 5
 364 313 l 5
 236 313 l 5
 236 270 236 228 236 185 c 5
 172 185 l 5
 172 -7 l 5
 236 -7 l 6
 236 -50 236 -92 236 -135 c 6
 300 -135 l 5
 300 -199 l 5
 684 -199 l 5
 684 -135 l 5
556 -135 m 5
 428 -135 l 5
 428 -71 l 5
 364 -71 l 5
 364 -7 l 5
 300 -7 l 5
 300 185 l 5
 364 185 l 5
 364 249 l 5
 620 249 l 5
 620 206 620 164 620 121 c 5
 684 121 l 5
 684 -71 l 5
 556 -71 l 5
 556 -135 l 5
EndSplineSet
Validated: 9
EndChar

StartChar: ugrave
Encoding: 249 249 97
Width: 1024
Flags: HW
LayerCount: 2
Fore
SplineSet
576 -135 m 5
 640 -135 l 5
 640 -199 l 5
 768 -199 l 5
 768 377 l 5
 640 377 l 5
 640 249 640 121 640 -7 c 5
 576 -7 l 5
 576 -71 l 5
 512 -71 l 5
 512 -135 l 5
 384 -135 l 5
 384 -71 l 5
 320 -71 l 5
 320 377 l 5
 192 377 l 5
 192 206 192 36 192 -135 c 5
 256 -135 l 5
 256 -199 l 5
 576 -199 l 5
 576 -135 l 5
640 377 m 5
 640 569 l 5
 576 569 l 5
 576 612 576 654 576 697 c 5
 512 697 l 5
 512 761 l 5
 448 761 l 5
 448 569 l 5
 512 569 l 6
 512 526 512 484 512 441 c 6
 576 441 l 5
 576 377 l 5
 640 377 l 5
EndSplineSet
Validated: 5
EndChar

StartChar: uacute
Encoding: 250 250 98
Width: 1024
Flags: HW
LayerCount: 2
Fore
SplineSet
586 -135 m 5
 650 -135 l 5
 650 -199 l 5
 778 -199 l 5
 778 377 l 5
 650 377 l 5
 650 249 650 121 650 -7 c 5
 586 -7 l 5
 586 -71 l 5
 522 -71 l 5
 522 -135 l 5
 394 -135 l 5
 394 -71 l 5
 330 -71 l 5
 330 377 l 5
 202 377 l 5
 202 206 202 36 202 -135 c 5
 266 -135 l 5
 266 -199 l 5
 586 -199 l 5
 586 -135 l 5
458 441 m 5
 522 441 l 6
 522 484 522 526 522 569 c 6
 586 569 l 5
 586 761 l 5
 522 761 l 5
 522 697 l 5
 458 697 l 6
 458 654 458 612 458 569 c 6
 394 569 l 5
 394 377 l 5
 458 377 l 5
 458 441 l 5
EndSplineSet
Validated: 9
EndChar

StartChar: Agrave
Encoding: 192 192 99
Width: 1024
Flags: HW
LayerCount: 2
Fore
SplineSet
192 -135 m 5
 192 -199 l 5
 320 -199 l 5
 320 -156 320 -114 320 -71 c 5
 640 -71 l 5
 640 -135 l 5
 704 -135 l 5
 704 -199 l 5
 768 -199 l 5
 768 -156 768 -114 768 -71 c 6
 704 -71 l 5
 704 121 l 5
 640 121 l 5
 640 185 l 5
 576 185 l 5
 576 228 576 270 576 313 c 5
 384 313 l 6
 384 270 384 228 384 185 c 6
 320 185 l 6
 320 142 320 100 320 57 c 6
 256 57 l 5
 256 -135 l 5
 192 -135 l 5
576 -7 m 5
 384 -7 l 6
 384 36 384 78 384 121 c 5
 448 121 l 5
 448 185 l 5
 512 185 l 5
 512 121 l 5
 576 121 l 6
 576 78 576 36 576 -7 c 5
576 505 m 5
 576 697 l 5
 512 697 l 5
 512 761 l 5
 448 761 l 5
 448 569 l 5
 512 569 l 6
 512 526 512 484 512 441 c 6
 640 441 l 5
 640 505 l 5
 576 505 l 5
EndSplineSet
Validated: 9
EndChar

StartChar: Aacute
Encoding: 193 193 100
Width: 1024
Flags: HW
LayerCount: 2
Fore
SplineSet
768 -199 m 5
 768 -156 768 -114 768 -71 c 6
 704 -71 l 5
 704 121 l 5
 640 121 l 6
 640 164 640 206 640 249 c 6
 576 249 l 5
 576 313 l 5
 512 313 l 5
 512 377 l 5
 448 377 l 5
 448 313 l 5
 384 313 l 6
 384 270 384 228 384 185 c 6
 320 185 l 6
 320 142 320 100 320 57 c 6
 256 57 l 5
 256 14 256 -28 256 -71 c 5
 192 -71 l 6
 192 -114 192 -156 192 -199 c 5
 320 -199 l 5
 320 -156 320 -114 320 -71 c 5
 640 -71 l 5
 640 -135 l 5
 704 -135 l 5
 704 -199 l 5
 768 -199 l 5
576 -7 m 5
 384 -7 l 6
 384 36 384 78 384 121 c 5
 448 121 l 5
 448 185 l 5
 512 185 l 5
 512 121 l 5
 576 121 l 6
 576 78 576 36 576 -7 c 5
512 441 m 6
 512 484 512 526 512 569 c 6
 576 569 l 5
 576 761 l 5
 512 761 l 5
 512 697 l 5
 448 697 l 6
 448 654 448 612 448 569 c 6
 384 569 l 6
 384 526 384 484 384 441 c 5
 512 441 l 6
EndSplineSet
Validated: 9
EndChar

StartChar: Acircumflex
Encoding: 194 194 101
Width: 1024
Flags: HW
LayerCount: 2
Fore
SplineSet
192 505 m 5
 192 441 l 5
 320 441 l 5
 320 505 l 5
 384 505 l 5
 384 569 l 5
 512 569 l 5
 512 505 l 5
 576 505 l 5
 576 441 l 5
 704 441 l 5
 704 505 l 5
 640 505 l 5
 640 569 l 5
 576 569 l 5
 576 633 l 5
 512 633 l 5
 512 697 l 5
 384 697 l 5
 384 633 l 5
 320 633 l 5
 320 569 l 5
 256 569 l 5
 256 505 l 5
 192 505 l 5
768 -199 m 5
 768 -156 768 -114 768 -71 c 6
 704 -71 l 5
 704 121 l 5
 640 121 l 6
 640 164 640 206 640 249 c 6
 576 249 l 5
 576 313 l 5
 512 313 l 5
 512 377 l 5
 448 377 l 5
 448 313 l 5
 384 313 l 6
 384 270 384 228 384 185 c 6
 320 185 l 6
 320 142 320 100 320 57 c 6
 256 57 l 5
 256 14 256 -28 256 -71 c 5
 192 -71 l 6
 192 -114 192 -156 192 -199 c 5
 320 -199 l 5
 320 -156 320 -114 320 -71 c 5
 640 -71 l 5
 640 -135 l 5
 704 -135 l 5
 704 -199 l 5
 768 -199 l 5
576 -7 m 5
 384 -7 l 6
 384 36 384 78 384 121 c 5
 448 121 l 5
 448 185 l 5
 512 185 l 5
 512 121 l 5
 576 121 l 6
 576 78 576 36 576 -7 c 5
EndSplineSet
Validated: 9
EndChar

StartChar: Atilde
Encoding: 195 195 102
Width: 1024
Flags: HW
LayerCount: 2
Fore
SplineSet
192 569 m 5
 192 505 l 5
 320 505 l 5
 320 569 l 5
 448 569 l 5
 448 505 l 5
 576 505 l 5
 576 441 l 5
 640 441 l 5
 640 505 l 5
 704 505 l 5
 704 569 l 5
 768 569 l 5
 768 633 l 5
 640 633 l 5
 640 569 l 5
 512 569 l 5
 512 633 l 5
 384 633 l 5
 384 697 l 5
 320 697 l 5
 320 633 l 5
 256 633 l 5
 256 569 l 5
 192 569 l 5
768 -199 m 5
 768 -156 768 -114 768 -71 c 6
 704 -71 l 5
 704 121 l 5
 640 121 l 6
 640 164 640 206 640 249 c 6
 576 249 l 5
 576 313 l 5
 512 313 l 5
 512 377 l 5
 448 377 l 5
 448 313 l 5
 384 313 l 6
 384 270 384 228 384 185 c 6
 320 185 l 6
 320 142 320 100 320 57 c 6
 256 57 l 5
 256 14 256 -28 256 -71 c 5
 192 -71 l 6
 192 -114 192 -156 192 -199 c 5
 320 -199 l 5
 320 -156 320 -114 320 -71 c 5
 640 -71 l 5
 640 -135 l 5
 704 -135 l 5
 704 -199 l 5
 768 -199 l 5
576 -7 m 5
 384 -7 l 6
 384 36 384 78 384 121 c 5
 448 121 l 5
 448 185 l 5
 512 185 l 5
 512 121 l 5
 576 121 l 6
 576 78 576 36 576 -7 c 5
EndSplineSet
Validated: 9
EndChar

StartChar: Ccedilla
Encoding: 199 199 103
Width: 1024
Flags: HW
LayerCount: 2
Fore
SplineSet
512 -203 m 6
 512 -160 512 -118 512 -75 c 6
 576 -75 l 6
 576 -32 576 10 576 53 c 5
 512 53 l 5
 512 -11 l 5
 448 -11 l 5
 448 -75 l 5
 384 -75 l 6
 384 -118 384 -160 384 -203 c 5
 512 -203 l 6
768 181 m 5
 832 181 l 5
 832 224 832 266 832 309 c 6
 768 309 l 5
 768 245 l 5
 704 245 l 5
 704 181 l 5
 448 181 l 5
 448 245 l 5
 384 245 l 5
 384 309 l 5
 320 309 l 5
 320 394 320 480 320 565 c 5
 384 565 l 5
 384 629 l 5
 512 629 l 5
 512 693 l 5
 704 693 l 6
 704 650 704 608 704 565 c 6
 832 565 l 5
 832 608 832 650 832 693 c 6
 704 693 l 5
 704 757 l 5
 384 757 l 5
 384 693 l 5
 256 693 l 5
 256 650 256 608 256 565 c 5
 192 565 l 5
 192 480 192 394 192 309 c 5
 256 309 l 6
 256 266 256 224 256 181 c 6
 384 181 l 5
 384 117 l 5
 768 117 l 5
 768 181 l 5
EndSplineSet
Validated: 5
EndChar

StartChar: Egrave
Encoding: 200 200 104
Width: 1024
Flags: HW
LayerCount: 2
Fore
SplineSet
394 -135 m 5
 394 -71 l 5
 330 -71 l 5
 330 -7 l 5
 714 -7 l 6
 714 36 714 78 714 121 c 5
 330 121 l 6
 330 164 330 206 330 249 c 5
 714 249 l 5
 714 313 l 5
 266 313 l 5
 266 142 266 -28 266 -199 c 5
 714 -199 l 5
 714 -135 l 5
 394 -135 l 5
650 377 m 5
 650 569 l 5
 586 569 l 5
 586 612 586 654 586 697 c 5
 522 697 l 5
 522 761 l 5
 458 761 l 5
 458 569 l 5
 522 569 l 6
 522 526 522 484 522 441 c 6
 586 441 l 5
 586 377 l 5
 650 377 l 5
EndSplineSet
Validated: 9
EndChar

StartChar: Eacute
Encoding: 201 201 105
Width: 1024
Flags: HW
LayerCount: 2
Fore
SplineSet
384 -135 m 5
 384 -71 l 5
 320 -71 l 5
 320 -7 l 5
 768 -7 l 5
 768 36 768 78 768 121 c 6
 320 121 l 6
 320 164 320 206 320 249 c 5
 768 249 l 5
 768 313 l 5
 256 313 l 5
 256 142 256 -28 256 -199 c 5
 768 -199 l 5
 768 -135 l 5
 384 -135 l 5
512 441 m 6
 512 484 512 526 512 569 c 6
 576 569 l 5
 576 761 l 5
 512 761 l 5
 512 697 l 5
 448 697 l 6
 448 654 448 612 448 569 c 6
 384 569 l 6
 384 526 384 484 384 441 c 5
 512 441 l 6
EndSplineSet
Validated: 9
EndChar

StartChar: Ecircumflex
Encoding: 202 202 106
Width: 1024
Flags: HW
LayerCount: 2
Fore
SplineSet
212 505 m 5
 212 441 l 5
 340 441 l 5
 340 505 l 5
 404 505 l 5
 404 569 l 5
 532 569 l 5
 532 505 l 5
 596 505 l 5
 596 441 l 5
 724 441 l 5
 724 505 l 5
 660 505 l 5
 660 569 l 5
 596 569 l 5
 596 633 l 5
 532 633 l 5
 532 697 l 5
 404 697 l 5
 404 633 l 5
 340 633 l 5
 340 569 l 5
 276 569 l 5
 276 505 l 5
 212 505 l 5
404 -135 m 5
 404 -71 l 5
 340 -71 l 5
 340 -7 l 5
 724 -7 l 6
 724 36 724 78 724 121 c 5
 340 121 l 6
 340 164 340 206 340 249 c 5
 724 249 l 5
 724 313 l 5
 276 313 l 5
 276 142 276 -28 276 -199 c 5
 724 -199 l 5
 724 -135 l 5
 404 -135 l 5
EndSplineSet
Validated: 9
EndChar

StartChar: Igrave
Encoding: 204 204 107
Width: 1024
Flags: HW
LayerCount: 2
Fore
SplineSet
320 -139 m 5
 320 -203 l 5
 576 -203 l 5
 576 -139 l 5
 512 -139 l 5
 512 32 512 202 512 373 c 5
 576 373 l 5
 576 437 l 5
 512 437 l 5
 512 629 l 5
 448 629 l 6
 448 672 448 714 448 757 c 6
 384 757 l 5
 384 821 l 5
 320 821 l 5
 320 736 320 650 320 565 c 5
 384 565 l 5
 384 501 l 5
 448 501 l 5
 448 437 l 5
 320 437 l 5
 320 373 l 5
 384 373 l 5
 384 202 384 32 384 -139 c 5
 320 -139 l 5
EndSplineSet
Validated: 9
EndChar

StartChar: Iacute
Encoding: 205 205 108
Width: 1024
Flags: HW
LayerCount: 2
Fore
SplineSet
576 -203 m 6
 576 -160 576 -118 576 -75 c 5
 512 -75 l 5
 512 373 l 5
 576 373 l 6
 576 416 576 458 576 501 c 5
 512 501 l 5
 512 565 l 5
 576 565 l 5
 576 650 576 736 576 821 c 5
 512 821 l 5
 512 757 l 5
 448 757 l 6
 448 714 448 672 448 629 c 6
 384 629 l 6
 384 586 384 544 384 501 c 6
 320 501 l 6
 320 458 320 416 320 373 c 5
 384 373 l 5
 384 -75 l 5
 320 -75 l 6
 320 -118 320 -160 320 -203 c 5
 576 -203 l 6
EndSplineSet
Validated: 9
EndChar

StartChar: Ograve
Encoding: 210 210 109
Width: 1024
Flags: HW
LayerCount: 2
Fore
SplineSet
714 -203 m 6
 714 -160 714 -118 714 -75 c 6
 778 -75 l 5
 778 245 l 5
 714 245 l 5
 714 309 l 5
 650 309 l 5
 650 373 l 5
 394 373 l 5
 394 309 l 5
 266 309 l 5
 266 117 l 5
 202 117 l 6
 202 74 202 32 202 -11 c 5
 266 -11 l 6
 266 -54 266 -96 266 -139 c 6
 394 -139 l 5
 394 -203 l 5
 714 -203 l 6
650 -75 m 5
 394 -75 l 6
 394 -32 394 10 394 53 c 6
 330 53 l 6
 330 96 330 138 330 181 c 5
 458 181 l 5
 458 245 l 5
 650 245 l 5
 650 181 l 5
 714 181 l 5
 714 -11 l 5
 650 -11 l 5
 650 -75 l 5
650 437 m 5
 650 629 l 5
 586 629 l 5
 586 672 586 714 586 757 c 5
 522 757 l 5
 522 821 l 5
 394 821 l 5
 394 629 l 5
 458 629 l 5
 458 565 l 5
 522 565 l 6
 522 522 522 480 522 437 c 6
 650 437 l 5
EndSplineSet
Validated: 9
EndChar

StartChar: Oacute
Encoding: 211 211 110
Width: 1024
Flags: HW
LayerCount: 2
Fore
SplineSet
640 -139 m 5
 704 -139 l 5
 704 -75 l 5
 768 -75 l 5
 768 245 l 5
 704 245 l 5
 704 309 l 5
 640 309 l 5
 640 373 l 5
 448 373 l 5
 448 309 l 5
 320 309 l 5
 320 245 l 5
 256 245 l 5
 256 -75 l 5
 320 -75 l 5
 320 -139 l 5
 448 -139 l 5
 448 -203 l 5
 640 -203 l 5
 640 -139 l 5
640 -75 m 5
 384 -75 l 6
 384 -32 384 10 384 53 c 6
 320 53 l 6
 320 96 320 138 320 181 c 5
 384 181 l 5
 384 245 l 5
 640 245 l 5
 640 181 l 5
 704 181 l 5
 704 -11 l 5
 640 -11 l 5
 640 -75 l 5
448 501 m 5
 512 501 l 6
 512 544 512 586 512 629 c 6
 576 629 l 5
 576 821 l 5
 512 821 l 5
 512 757 l 5
 448 757 l 6
 448 714 448 672 448 629 c 6
 384 629 l 5
 384 437 l 5
 448 437 l 5
 448 501 l 5
EndSplineSet
Validated: 9
EndChar

StartChar: Ocircumflex
Encoding: 212 212 111
Width: 1024
Flags: HW
LayerCount: 2
Fore
SplineSet
266 565 m 5
 266 501 l 5
 394 501 l 5
 394 565 l 5
 458 565 l 5
 458 629 l 5
 586 629 l 5
 586 565 l 5
 650 565 l 5
 650 501 l 5
 778 501 l 5
 778 565 l 5
 714 565 l 5
 714 629 l 5
 650 629 l 5
 650 693 l 5
 586 693 l 5
 586 757 l 5
 458 757 l 5
 458 693 l 5
 394 693 l 5
 394 629 l 5
 330 629 l 5
 330 565 l 5
 266 565 l 5
714 -203 m 6
 714 -160 714 -118 714 -75 c 6
 778 -75 l 5
 778 245 l 5
 714 245 l 5
 714 309 l 5
 650 309 l 5
 650 373 l 5
 394 373 l 5
 394 309 l 5
 266 309 l 5
 266 117 l 5
 202 117 l 6
 202 74 202 32 202 -11 c 5
 266 -11 l 6
 266 -54 266 -96 266 -139 c 6
 394 -139 l 5
 394 -203 l 5
 714 -203 l 6
650 -75 m 5
 394 -75 l 6
 394 -32 394 10 394 53 c 6
 330 53 l 6
 330 96 330 138 330 181 c 5
 458 181 l 5
 458 245 l 5
 650 245 l 5
 650 181 l 5
 714 181 l 5
 714 -11 l 5
 650 -11 l 5
 650 -75 l 5
EndSplineSet
Validated: 9
EndChar

StartChar: Ugrave
Encoding: 217 217 112
Width: 1024
Flags: HW
LayerCount: 2
Fore
SplineSet
394 761 m 5
 394 697 l 5
 458 697 l 5
 458 654 458 612 458 569 c 5
 522 569 l 6
 522 526 522 484 522 441 c 6
 586 441 l 5
 586 526 586 612 586 697 c 5
 522 697 l 5
 522 761 l 5
 394 761 l 5
586 -135 m 5
 714 -135 l 6
 714 -92 714 -50 714 -7 c 6
 778 -7 l 5
 778 441 l 5
 650 441 l 5
 650 -7 l 5
 586 -7 l 5
 586 -71 l 5
 330 -71 l 5
 330 100 330 270 330 441 c 5
 202 441 l 5
 202 270 202 100 202 -71 c 5
 266 -71 l 5
 266 -135 l 5
 330 -135 l 5
 330 -199 l 5
 586 -199 l 5
 586 -135 l 5
EndSplineSet
Validated: 9
EndChar

StartChar: Uacute
Encoding: 218 218 113
Width: 1024
Flags: HW
LayerCount: 2
Fore
SplineSet
596 -135 m 5
 724 -135 l 6
 724 -92 724 -50 724 -7 c 6
 788 -7 l 5
 788 441 l 5
 660 441 l 5
 660 -7 l 5
 596 -7 l 5
 596 -71 l 5
 340 -71 l 5
 340 100 340 270 340 441 c 5
 212 441 l 5
 212 270 212 100 212 -71 c 5
 276 -71 l 5
 276 -135 l 5
 340 -135 l 5
 340 -199 l 5
 596 -199 l 5
 596 -135 l 5
468 441 m 5
 532 441 l 6
 532 484 532 526 532 569 c 6
 596 569 l 5
 596 761 l 5
 532 761 l 5
 532 697 l 5
 468 697 l 6
 468 654 468 612 468 569 c 6
 404 569 l 5
 404 377 l 5
 468 377 l 5
 468 441 l 5
EndSplineSet
Validated: 9
EndChar

StartChar: backslash
Encoding: 92 92 114
Width: 1024
Flags: HW
LayerCount: 2
Fore
SplineSet
768 -199 m 5
 768 -156 768 -114 768 -71 c 6
 704 -71 l 5
 704 -28 704 14 704 57 c 5
 640 57 l 5
 640 121 l 5
 576 121 l 5
 576 164 576 206 576 249 c 5
 512 249 l 5
 512 292 512 334 512 377 c 5
 448 377 l 5
 448 441 l 5
 384 441 l 5
 384 505 l 5
 320 505 l 6
 320 548 320 590 320 633 c 6
 256 633 l 5
 256 697 l 5
 192 697 l 5
 192 505 l 5
 256 505 l 5
 256 441 l 5
 320 441 l 5
 320 398 320 356 320 313 c 5
 384 313 l 5
 384 249 l 5
 448 249 l 5
 448 206 448 164 448 121 c 5
 512 121 l 5
 512 57 l 5
 576 57 l 6
 576 14 576 -28 576 -71 c 6
 640 -71 l 5
 640 -135 l 5
 704 -135 l 5
 704 -199 l 5
 768 -199 l 5
EndSplineSet
Validated: 9
EndChar

StartChar: at
Encoding: 64 64 115
Width: 1024
Flags: HW
LayerCount: 2
Fore
SplineSet
448 371 m 5
 448 307 l 5
 704 307 l 5
 704 243 l 5
 512 243 l 5
 512 179 l 5
 448 179 l 5
 448 -13 l 5
 320 -13 l 5
 320 115 320 243 320 371 c 5
 384 371 l 5
 384 435 l 5
 576 435 l 5
 576 371 l 5
 448 371 l 5
768 -205 m 5
 768 -162 768 -120 768 -77 c 6
 448 -77 l 5
 448 -13 l 5
 896 -13 l 5
 896 435 l 5
 832 435 l 5
 832 499 l 5
 704 499 l 5
 704 563 l 5
 384 563 l 5
 384 499 l 5
 256 499 l 5
 256 456 256 414 256 371 c 5
 192 371 l 6
 192 328 192 286 192 243 c 6
 128 243 l 5
 128 200 128 158 128 115 c 6
 192 115 l 5
 192 -77 l 5
 256 -77 l 5
 256 -141 l 5
 384 -141 l 5
 384 -205 l 5
 768 -205 l 5
768 51 m 5
 512 51 l 5
 512 115 l 5
 768 115 l 5
 768 51 l 5
EndSplineSet
Validated: 5
EndChar

StartChar: exclamdown
Encoding: 161 161 116
Width: 1024
Flags: HW
LayerCount: 2
Fore
SplineSet
576 -205 m 5
 576 371 l 5
 448 371 l 5
 448 -205 l 5
 576 -205 l 5
576 435 m 6
 576 478 576 520 576 563 c 5
 448 563 l 6
 448 520 448 478 448 435 c 5
 576 435 l 6
EndSplineSet
Validated: 9
EndChar

StartChar: questiondown
Encoding: 191 191 117
Width: 1024
Flags: HW
LayerCount: 2
Fore
SplineSet
640 -141 m 5
 768 -141 l 5
 768 51 l 5
 704 51 l 5
 704 -13 l 5
 640 -13 l 5
 640 -77 l 5
 384 -77 l 5
 384 115 l 5
 512 115 l 5
 512 179 l 5
 576 179 l 5
 576 371 l 5
 448 371 l 6
 448 328 448 286 448 243 c 6
 384 243 l 5
 384 179 l 5
 320 179 l 5
 320 115 l 5
 256 115 l 5
 256 -77 l 5
 320 -77 l 5
 320 -141 l 5
 384 -141 l 5
 384 -205 l 5
 640 -205 l 5
 640 -141 l 5
576 435 m 6
 576 478 576 520 576 563 c 5
 448 563 l 6
 448 520 448 478 448 435 c 5
 576 435 l 6
EndSplineSet
Validated: 9
EndChar

StartChar: asciicircum
Encoding: 94 94 118
Width: 1024
Flags: HW
LayerCount: 2
Fore
SplineSet
256 339 m 1
 256 275 l 1
 384 275 l 1
 384 339 l 1
 448 339 l 1
 448 403 l 1
 576 403 l 1
 576 339 l 1
 640 339 l 1
 640 275 l 1
 768 275 l 1
 768 339 l 1
 704 339 l 1
 704 403 l 1
 640 403 l 1
 640 467 l 1
 576 467 l 1
 576 531 l 1
 448 531 l 1
 448 467 l 1
 384 467 l 1
 384 403 l 1
 320 403 l 1
 320 339 l 1
 256 339 l 1
EndSplineSet
Validated: 9
EndChar

StartChar: underscore
Encoding: 95 95 119
Width: 1024
Flags: HW
LayerCount: 2
Fore
SplineSet
832 -199 m 5
 832 -156 832 -114 832 -71 c 6
 192 -71 l 6
 192 -114 192 -156 192 -199 c 5
 832 -199 l 5
EndSplineSet
Validated: 9
EndChar

StartChar: bar
Encoding: 124 124 120
Width: 1024
Flags: HW
LayerCount: 2
Fore
SplineSet
576 -205 m 5
 576 51 576 307 576 563 c 5
 448 563 l 5
 448 307 448 51 448 -205 c 5
 576 -205 l 5
EndSplineSet
Validated: 9
EndChar

StartChar: grave
Encoding: 96 96 121
Width: 1024
Flags: HW
LayerCount: 2
Fore
SplineSet
576 595 m 1
 576 787 l 1
 448 787 l 2
 448 744 448 702 448 659 c 1
 512 659 l 2
 512 616 512 574 512 531 c 2
 640 531 l 1
 640 595 l 1
 576 595 l 1
EndSplineSet
Validated: 9
EndChar

StartChar: acute
Encoding: 180 180 122
Width: 1024
Flags: HW
LayerCount: 2
Fore
SplineSet
384 595 m 1
 384 531 l 1
 512 531 l 2
 512 574 512 616 512 659 c 2
 576 659 l 2
 576 702 576 744 576 787 c 1
 448 787 l 1
 448 595 l 1
 384 595 l 1
EndSplineSet
Validated: 9
EndChar

StartChar: ntilde
Encoding: 241 241 123
Width: 1024
Flags: HW
LayerCount: 2
Fore
SplineSet
202 569 m 5
 202 505 l 5
 330 505 l 5
 330 569 l 5
 458 569 l 5
 458 505 l 5
 586 505 l 5
 586 441 l 5
 650 441 l 5
 650 505 l 5
 714 505 l 5
 714 569 l 5
 778 569 l 5
 778 633 l 5
 650 633 l 5
 650 569 l 5
 522 569 l 5
 522 633 l 5
 394 633 l 5
 394 697 l 5
 330 697 l 5
 330 633 l 5
 266 633 l 5
 266 569 l 5
 202 569 l 5
778 -199 m 5
 778 249 l 5
 714 249 l 5
 714 313 l 5
 650 313 l 5
 650 377 l 5
 394 377 l 5
 394 313 l 5
 330 313 l 5
 330 377 l 5
 202 377 l 5
 202 -199 l 5
 330 -199 l 5
 330 -71 330 57 330 185 c 5
 394 185 l 5
 394 249 l 5
 586 249 l 5
 586 185 l 5
 650 185 l 5
 650 57 650 -71 650 -199 c 5
 778 -199 l 5
EndSplineSet
Validated: 9
EndChar

StartChar: Ntilde
Encoding: 209 209 124
Width: 1024
Flags: HW
LayerCount: 2
Fore
SplineSet
192 693 m 5
 192 629 l 5
 320 629 l 5
 320 693 l 5
 448 693 l 5
 448 629 l 5
 576 629 l 5
 576 565 l 5
 640 565 l 5
 640 629 l 5
 704 629 l 5
 704 693 l 5
 768 693 l 5
 768 757 l 5
 640 757 l 5
 640 693 l 5
 512 693 l 5
 512 757 l 5
 384 757 l 5
 384 821 l 5
 320 821 l 5
 320 757 l 5
 256 757 l 5
 256 693 l 5
 192 693 l 5
832 -203 m 5
 832 53 832 309 832 565 c 5
 704 565 l 5
 704 394 704 224 704 53 c 5
 640 53 l 5
 640 117 l 5
 576 117 l 5
 576 181 l 5
 512 181 l 5
 512 245 l 5
 448 245 l 5
 448 309 l 5
 384 309 l 6
 384 352 384 394 384 437 c 6
 320 437 l 5
 320 501 l 5
 256 501 l 5
 256 565 l 5
 128 565 l 5
 128 309 128 53 128 -203 c 5
 256 -203 l 5
 256 245 l 5
 384 245 l 5
 384 202 384 160 384 117 c 5
 448 117 l 5
 448 53 l 5
 512 53 l 5
 512 -11 l 5
 576 -11 l 5
 576 -75 l 5
 640 -75 l 5
 640 -118 640 -160 640 -203 c 5
 832 -203 l 5
EndSplineSet
Validated: 9
EndChar

StartChar: bracketleft
Encoding: 91 91 125
Width: 1024
Flags: HW
LayerCount: 2
Fore
SplineSet
640 -203 m 5
 640 -160 640 -118 640 -75 c 6
 512 -75 l 5
 512 181 512 437 512 693 c 5
 640 693 l 5
 640 736 640 778 640 821 c 6
 384 821 l 5
 384 480 384 138 384 -203 c 5
 640 -203 l 5
EndSplineSet
Validated: 9
EndChar

StartChar: bracketright
Encoding: 93 93 126
Width: 1024
Flags: HW
LayerCount: 2
Fore
SplineSet
640 -203 m 5
 640 138 640 480 640 821 c 5
 384 821 l 6
 384 778 384 736 384 693 c 5
 512 693 l 5
 512 437 512 181 512 -75 c 5
 384 -75 l 6
 384 -118 384 -160 384 -203 c 5
 640 -203 l 5
EndSplineSet
Validated: 9
EndChar

StartChar: Otilde
Encoding: 213 213 128
Width: 1024
Flags: H
LayerCount: 2
Fore
SplineSet
192 569 m 1
 192 505 l 1
 320 505 l 1
 320 569 l 1
 448 569 l 1
 448 505 l 1
 576 505 l 1
 576 441 l 1
 640 441 l 1
 640 505 l 1
 704 505 l 1
 704 569 l 1
 768 569 l 1
 768 633 l 1
 640 633 l 1
 640 569 l 1
 512 569 l 1
 512 633 l 1
 384 633 l 1
 384 697 l 1
 320 697 l 1
 320 633 l 1
 256 633 l 1
 256 569 l 1
 192 569 l 1
640 -135 m 1
 704 -135 l 1
 704 -71 l 1
 768 -71 l 1
 768 249 l 1
 704 249 l 1
 704 313 l 1
 640 313 l 1
 640 377 l 1
 448 377 l 1
 448 313 l 1
 320 313 l 1
 320 249 l 1
 256 249 l 1
 256 -71 l 1
 320 -71 l 1
 320 -135 l 1
 448 -135 l 1
 448 -199 l 1
 640 -199 l 1
 640 -135 l 1
640 -71 m 1
 384 -71 l 2
 384 -28.3330078125 384 14.3330078125 384 57 c 2
 320 57 l 2
 320 99.6669921875 320 142.333007812 320 185 c 1
 384 185 l 1
 384 249 l 1
 640 249 l 1
 640 185 l 1
 704 185 l 1
 704 -7 l 1
 640 -7 l 1
 640 -71 l 1
EndSplineSet
EndChar

StartChar: otilde
Encoding: 245 245 129
Width: 1024
Flags: H
LayerCount: 2
Fore
SplineSet
192 569 m 5
 192 505 l 5
 320 505 l 5
 320 569 l 5
 448 569 l 5
 448 505 l 5
 576 505 l 5
 576 441 l 5
 640 441 l 5
 640 505 l 5
 704 505 l 5
 704 569 l 5
 768 569 l 5
 768 633 l 5
 640 633 l 5
 640 569 l 5
 512 569 l 5
 512 633 l 5
 384 633 l 5
 384 697 l 5
 320 697 l 5
 320 633 l 5
 256 633 l 5
 256 569 l 5
 192 569 l 5
704 -135 m 5
 768 -135 l 5
 768 -92.3330078125 768 -49.6669921875 768 -7 c 5
 832 -7 l 5
 832 185 l 5
 768 185 l 5
 768 249 l 5
 704 249 l 5
 704 313 l 5
 640 313 l 5
 640 377 l 5
 384 377 l 5
 384 313 l 5
 256 313 l 5
 256 270.333007812 256 227.666992188 256 185 c 5
 192 185 l 5
 192 -7 l 5
 256 -7 l 6
 256 -49.6669921875 256 -92.3330078125 256 -135 c 6
 320 -135 l 5
 320 -199 l 5
 704 -199 l 5
 704 -135 l 5
576 -135 m 5
 448 -135 l 5
 448 -71 l 5
 384 -71 l 5
 384 -7 l 5
 320 -7 l 5
 320 185 l 5
 384 185 l 5
 384 249 l 5
 640 249 l 5
 640 185 l 5
 704 185 l 5
 704 99.6669921875 704 14.3330078125 704 -71 c 5
 576 -71 l 5
 576 -135 l 5
EndSplineSet
EndChar
